<svg width="38" height="38" viewBox="0 0 38 38" fill="none" xmlns="http://www.w3.org/2000/svg">
<path d="M18.9094 0.553711C8.52707 0.553711 0.109375 8.79231 0.109375 18.9537C0.109375 29.1151 8.52707 37.3537 18.9094 37.3537C29.2917 37.3537 37.7094 29.1151 37.7094 18.9537C37.7094 8.79231 29.2917 0.553711 18.9094 0.553711ZM25.4596 12.8204H22.7508C21.0651 12.8204 20.476 13.6913 20.476 15.4546V17.4204H25.4173L24.7468 22.0204H20.476V34.2104C19.9606 34.2594 19.4389 34.287 18.9094 34.287C17.8362 34.287 16.7881 34.1797 15.776 33.9788V22.0204H11.076V17.4204H15.776V14.9502C15.776 10.2735 18.1041 8.22038 22.0756 8.22038C23.9775 8.22038 24.9833 8.35838 25.4596 8.42124V12.8204Z" fill="white"/>
</svg>
