<svg width="40" height="40" viewBox="0 0 40 40" fill="none" xmlns="http://www.w3.org/2000/svg">
<path d="M11.8287 0.633789C5.51907 0.633789 0.388672 5.76419 0.388672 12.0738V27.9138C0.388672 34.2234 5.51907 39.3538 11.8287 39.3538H27.6687C33.9783 39.3538 39.1087 34.2234 39.1087 27.9138V12.0738C39.1087 5.76419 33.9783 0.633789 27.6687 0.633789H11.8287ZM30.3087 7.67379C31.2767 7.67379 32.0687 8.46579 32.0687 9.43379C32.0687 10.4018 31.2767 11.1938 30.3087 11.1938C29.3407 11.1938 28.5487 10.4018 28.5487 9.43379C28.5487 8.46579 29.3407 7.67379 30.3087 7.67379ZM19.7487 10.3138C25.0903 10.3138 29.4287 14.6522 29.4287 19.9938C29.4287 25.3354 25.0903 29.6738 19.7487 29.6738C14.4071 29.6738 10.0687 25.3354 10.0687 19.9938C10.0687 14.6522 14.4071 10.3138 19.7487 10.3138ZM19.7487 12.0738C15.3839 12.0738 11.8287 15.629 11.8287 19.9938C11.8287 24.3586 15.3839 27.9138 19.7487 27.9138C24.1135 27.9138 27.6687 24.3586 27.6687 19.9938C27.6687 15.629 24.1135 12.0738 19.7487 12.0738Z" fill="white"/>
</svg>
