<svg width="37" height="38" viewBox="0 0 37 38" fill="none" xmlns="http://www.w3.org/2000/svg">
<path d="M32.529 0.393799H5.00898C2.63538 0.393799 0.708984 2.365 0.708984 4.7938V32.9538C0.708984 35.3826 2.63538 37.3538 5.00898 37.3538H32.529C34.9026 37.3538 36.829 35.3826 36.829 32.9538V4.7938C36.829 2.365 34.9026 0.393799 32.529 0.393799ZM11.889 14.4738V31.1938H6.72898V14.4738H11.889ZM6.72898 9.6074C6.72898 8.3754 7.76098 7.4338 9.30898 7.4338C10.857 7.4338 11.8288 8.3754 11.889 9.6074C11.889 10.8394 10.9258 11.8338 9.30898 11.8338C7.76098 11.8338 6.72898 10.8394 6.72898 9.6074ZM30.809 31.1938H25.649C25.649 31.1938 25.649 23.045 25.649 22.3938C25.649 20.6338 24.789 18.8738 22.639 18.8386H22.5702C20.489 18.8386 19.629 20.6514 19.629 22.3938C19.629 23.1946 19.629 31.1938 19.629 31.1938H14.469V14.4738H19.629V16.7266C19.629 16.7266 21.2888 14.4738 24.6256 14.4738C28.0398 14.4738 30.809 16.8762 30.809 21.7426V31.1938Z" fill="white"/>
</svg>
