<svg width="356" height="96" viewBox="0 0 356 96" fill="none" xmlns="http://www.w3.org/2000/svg">
<path d="M153.579 33.4115C151.32 33.4115 149.246 32.9994 147.351 32.1824C145.456 31.3653 143.825 30.2479 142.467 28.8303L144.855 26.1137C145.985 27.273 147.315 28.2088 148.853 28.9141C150.383 29.6194 151.978 29.9756 153.63 29.9756C155.739 29.9756 157.384 29.5077 158.557 28.5789C159.729 27.6431 160.316 26.428 160.316 24.9335C160.316 23.8301 160.08 22.9572 159.601 22.3077C159.121 21.6582 158.485 21.1135 157.691 20.6735C156.898 20.2336 155.989 19.8076 154.981 19.3816L150.419 17.4332C149.432 17.0072 148.445 16.4695 147.444 15.82C146.443 15.1705 145.613 14.3186 144.948 13.278C144.283 12.2305 143.947 10.9595 143.947 9.46501C143.947 7.85182 144.383 6.43417 145.249 5.20507C146.114 3.97597 147.301 3.00526 148.81 2.29993C150.311 1.59459 152.035 1.23843 153.98 1.23843C155.889 1.23843 157.648 1.59459 159.257 2.29993C160.866 3.00526 162.218 3.92709 163.319 5.05842L161.238 7.55851C160.251 6.68557 159.179 5.98024 158.006 5.45648C156.833 4.93271 155.496 4.67432 153.987 4.67432C152.192 4.67432 150.755 5.07937 149.668 5.88247C148.581 6.68557 148.037 7.78198 148.037 9.1717C148.037 10.1913 148.302 11.0223 148.838 11.6718C149.375 12.3213 150.047 12.845 150.855 13.2431C151.663 13.6412 152.492 14.0183 153.329 14.3884L157.841 16.2949C159.057 16.8047 160.166 17.4122 161.16 18.1176C162.161 18.8229 162.947 19.7028 163.526 20.7434C164.106 21.7909 164.392 23.0759 164.392 24.6053C164.392 26.2464 163.956 27.7339 163.09 29.0817C162.225 30.4225 160.974 31.484 159.357 32.2592C157.734 33.0204 155.811 33.4115 153.579 33.4115Z" fill="#319F5A"/>
<path d="M174.812 33.4082C173.511 33.4082 172.338 33.1568 171.294 32.647C170.25 32.1372 169.435 31.397 168.841 30.4193C168.248 29.4416 167.947 28.2614 167.947 26.8786C167.947 24.3646 169.099 22.4371 171.401 21.0893C173.704 19.7485 177.372 18.8057 182.407 18.268C182.407 17.2763 182.271 16.3405 181.992 15.4466C181.713 14.5597 181.234 13.8334 180.54 13.2817C179.847 12.73 178.845 12.4577 177.544 12.4577C176.185 12.4577 174.905 12.723 173.704 13.2398C172.502 13.7636 171.423 14.3223 170.472 14.9159L168.956 12.2412C169.678 11.7873 170.522 11.3263 171.473 10.8654C172.431 10.3975 173.468 10.0134 174.598 9.69919C175.728 9.38493 176.929 9.23129 178.202 9.23129C180.111 9.23129 181.67 9.62935 182.871 10.4185C184.073 11.2076 184.959 12.304 185.517 13.7077C186.082 15.1044 186.361 16.7665 186.361 18.687V32.8495H183.107L182.757 30.091H182.628C181.527 30.9989 180.318 31.7741 179.003 32.4235C177.687 33.087 176.292 33.4082 174.812 33.4082ZM175.942 30.2726C177.072 30.2726 178.152 30.0212 179.174 29.5114C180.204 29.0016 181.284 28.2544 182.407 27.2627V20.8588C179.775 21.1452 177.673 21.5432 176.114 22.067C174.548 22.5907 173.439 23.2262 172.774 23.9735C172.109 24.7207 171.773 25.6076 171.773 26.6202C171.773 27.9471 172.181 28.8899 172.989 29.4416C173.804 29.9933 174.784 30.2726 175.942 30.2726Z" fill="#319F5A"/>
<path d="M192.961 32.8551V9.83041H196.215L196.608 13.1825H196.694C197.824 12.0791 199.018 11.1503 200.276 10.3821C201.535 9.62091 202.972 9.23682 204.596 9.23682C207.084 9.23682 208.908 10.005 210.066 11.5484C211.225 13.0917 211.804 15.3264 211.804 18.2665V32.8551H207.849V18.7763C207.849 16.5974 207.492 15.0331 206.784 14.0694C206.076 13.1057 204.939 12.6308 203.373 12.6308C202.157 12.6308 201.07 12.9241 200.119 13.5177C199.168 14.1113 198.11 14.9842 196.951 16.1435V32.8481H192.961V32.8551Z" fill="#319F5A"/>
<path d="M224.009 33.4082C222.708 33.4082 221.535 33.1568 220.491 32.647C219.447 32.1372 218.632 31.397 218.038 30.4193C217.445 29.4416 217.145 28.2614 217.145 26.8786C217.145 24.3646 218.296 22.4371 220.598 21.0893C222.901 19.7485 226.57 18.8057 231.604 18.268C231.604 17.2763 231.468 16.3405 231.189 15.4466C230.91 14.5597 230.431 13.8334 229.737 13.2817C229.044 12.73 228.043 12.4577 226.741 12.4577C225.382 12.4577 224.102 12.723 222.901 13.2398C221.7 13.7636 220.62 14.3223 219.669 14.9159L218.153 12.2412C218.875 11.7873 219.719 11.3263 220.67 10.8654C221.628 10.3975 222.665 10.0134 223.795 9.69919C224.925 9.38493 226.126 9.23129 227.399 9.23129C229.308 9.23129 230.867 9.62935 232.069 10.4185C233.27 11.2076 234.157 12.304 234.715 13.7077C235.279 15.1044 235.558 16.7665 235.558 18.687V32.8495H232.305L231.954 30.091H231.826C230.724 30.9989 229.516 31.7741 228.2 32.4235C226.877 33.087 225.483 33.4082 224.009 33.4082ZM225.132 30.2726C226.262 30.2726 227.342 30.0212 228.364 29.5114C229.394 29.0016 230.474 28.2544 231.597 27.2627V20.8588C228.965 21.1452 226.863 21.5432 225.304 22.067C223.738 22.5907 222.629 23.2262 221.964 23.9735C221.299 24.7207 220.963 25.6076 220.963 26.6202C220.963 27.9471 221.371 28.8899 222.179 29.4416C222.994 29.9933 223.974 30.2726 225.132 30.2726Z" fill="#319F5A"/>
<path d="M248.755 33.407C247.103 33.407 245.787 33.0857 244.8 32.4502C243.813 31.8147 243.112 30.9138 242.691 29.7546C242.269 28.5953 242.061 27.2545 242.061 25.7251V12.9732H238.543V10.0471L242.276 9.8376L242.712 3.34991H246.016V9.8376H252.445V12.9732H246.016V25.8648C246.016 27.2475 246.28 28.3299 246.817 29.1121C247.353 29.8873 248.297 30.2783 249.663 30.2783C250.099 30.2783 250.557 30.2155 251.05 30.0898C251.543 29.9641 251.973 29.8174 252.352 29.6428L253.131 32.5689C252.466 32.7924 251.758 32.9949 251.007 33.1625C250.263 33.3231 249.513 33.407 248.755 33.407Z" fill="#319F5A"/>
<path d="M265.257 33.4106C263.348 33.4106 261.553 32.9357 259.873 31.993C258.192 31.0432 256.855 29.6744 255.854 27.8797C254.853 26.0849 254.359 23.913 254.359 21.371C254.359 18.8011 254.86 16.6153 255.854 14.8205C256.855 13.0257 258.192 11.65 259.873 10.6863C261.553 9.72254 263.348 9.24767 265.257 9.24767C266.702 9.24767 268.089 9.52002 269.405 10.0508C270.721 10.5885 271.886 11.3776 272.902 12.4252C273.917 13.4727 274.711 14.7437 275.29 16.2382C275.87 17.7396 276.156 19.4436 276.156 21.371C276.156 23.913 275.648 26.0849 274.632 27.8797C273.617 29.6744 272.287 31.0432 270.635 31.993C268.99 32.9357 267.195 33.4106 265.257 33.4106ZM265.257 30.1912C266.616 30.1912 267.81 29.8211 268.84 29.0878C269.87 28.3546 270.671 27.321 271.25 25.9941C271.829 24.6673 272.115 23.1239 272.115 21.371C272.115 19.5902 271.829 18.0329 271.25 16.7061C270.671 15.3792 269.87 14.3456 268.84 13.6124C267.81 12.8791 266.616 12.509 265.257 12.509C263.899 12.509 262.705 12.8791 261.675 13.6124C260.645 14.3456 259.851 15.3792 259.286 16.7061C258.721 18.0329 258.443 19.5902 258.443 21.371C258.443 23.1239 258.729 24.6673 259.286 25.9941C259.851 27.321 260.645 28.3546 261.675 29.0878C262.697 29.8211 263.892 30.1912 265.257 30.1912Z" fill="#319F5A"/>
<path d="M281.537 32.8551V9.83041H284.791L285.184 14.0275H285.27C286.078 12.561 287.072 11.3947 288.245 10.5288C289.418 9.66979 290.655 9.23682 291.956 9.23682C292.507 9.23682 292.979 9.27173 293.365 9.34157C293.758 9.4114 294.123 9.54409 294.473 9.74661L293.737 13.0987C293.329 12.987 292.972 12.8962 292.65 12.8194C292.328 12.7495 291.928 12.7146 291.434 12.7146C290.476 12.7146 289.453 13.1196 288.352 13.9228C287.251 14.7259 286.314 16.1086 285.527 18.057V32.8551H281.537Z" fill="#319F5A"/>
<path d="M299.509 5.084C298.73 5.084 298.1 4.85354 297.621 4.38565C297.142 3.91775 296.906 3.28923 296.906 2.5001C296.906 1.73889 297.142 1.13133 297.621 0.677401C298.1 0.223472 298.73 0 299.509 0C300.289 0 300.925 0.223472 301.419 0.677401C301.912 1.13133 302.155 1.73889 302.155 2.5001C302.155 3.28923 301.912 3.91775 301.419 4.38565C300.925 4.85354 300.289 5.084 299.509 5.084ZM297.514 32.8574V9.83279H301.511V32.8574H297.514Z" fill="#319F5A"/>
<path d="M317.744 33.4106C315.835 33.4106 314.04 32.9357 312.359 31.993C310.679 31.0432 309.341 29.6744 308.34 27.8797C307.339 26.0849 306.846 23.913 306.846 21.371C306.846 18.8011 307.346 16.6153 308.34 14.8205C309.341 13.0257 310.679 11.65 312.359 10.6863C314.04 9.72254 315.835 9.24767 317.744 9.24767C319.188 9.24767 320.576 9.52002 321.891 10.0508C323.207 10.5885 324.373 11.3776 325.388 12.4252C326.404 13.4727 327.197 14.7437 327.777 16.2382C328.356 17.7396 328.642 19.4436 328.642 21.371C328.642 23.913 328.134 26.0849 327.119 27.8797C326.103 29.6744 324.773 31.0432 323.121 31.993C321.477 32.9357 319.682 33.4106 317.744 33.4106ZM317.744 30.1912C319.103 30.1912 320.297 29.8211 321.326 29.0878C322.356 28.3546 323.157 27.321 323.736 25.9941C324.316 24.6673 324.602 23.1239 324.602 21.371C324.602 19.5902 324.316 18.0329 323.736 16.7061C323.157 15.3792 322.356 14.3456 321.326 13.6124C320.297 12.8791 319.103 12.509 317.744 12.509C316.385 12.509 315.191 12.8791 314.161 13.6124C313.131 14.3456 312.338 15.3792 311.773 16.7061C311.208 18.0329 310.929 19.5902 310.929 21.371C310.929 23.1239 311.215 24.6673 311.773 25.9941C312.338 27.321 313.131 28.3546 314.161 29.0878C315.191 29.8211 316.385 30.1912 317.744 30.1912Z" fill="#319F5A"/>
<path d="M115.349 95.6297C110.787 95.6297 106.954 94.7568 103.858 93.0179C100.761 91.279 98.1656 88.6392 96.0703 85.1056L105.595 78.1151C106.647 80.0635 107.862 81.4951 109.257 82.4169C110.644 83.3388 112.053 83.7997 113.469 83.7997C115.778 83.7997 117.523 83.1223 118.703 81.7605C119.883 80.4057 120.477 77.8567 120.477 74.1135V37.2964H134.564V75.182C134.564 78.9252 133.885 82.3401 132.519 85.4408C131.153 88.5415 129.058 91.0136 126.226 92.8573C123.394 94.7009 119.754 95.6297 115.349 95.6297Z" fill="#319F5A"/>
<path d="M159.733 95.6331C154.799 95.6331 151.231 94.0339 149.028 90.8285C146.826 87.63 145.725 83.3072 145.725 77.881V50.8269H159.733V76.191C159.733 79.166 160.155 81.1982 160.992 82.3016C161.829 83.405 163.144 83.9567 164.925 83.9567C166.498 83.9567 167.85 83.6075 168.98 82.9162C170.11 82.2248 171.247 81.0865 172.405 79.4942V50.8269H186.414V94.5577H175.001L173.978 88.5658H173.664C171.826 90.7167 169.809 92.4347 167.607 93.7127C165.397 94.9907 162.773 95.6331 159.733 95.6331Z" fill="#319F5A"/>
<path d="M197.273 94.5583V50.8276H208.686L209.709 56.2817H209.945C211.783 54.487 213.864 52.9506 216.202 51.6726C218.533 50.3946 221.222 49.7521 224.268 49.7521C229.145 49.7521 232.692 51.3444 234.895 54.5149C237.097 57.6924 238.199 62.0222 238.199 67.5042V94.5583H224.19V69.1942C224.19 66.1704 223.768 64.1242 222.931 63.0487C222.095 61.9733 220.779 61.4355 218.998 61.4355C217.425 61.4355 216.088 61.7708 214.986 62.4342C213.885 63.0976 212.648 64.0753 211.289 65.3533V94.5583H197.273Z" fill="#319F5A"/>
<path d="M268.41 95.6338C264.213 95.6338 260.437 94.726 257.076 92.9033C253.715 91.0875 251.055 88.4618 249.088 85.0259C247.122 81.59 246.135 77.4697 246.135 72.6511C246.135 67.8394 247.222 63.7261 249.403 60.3182C251.577 56.9102 254.466 54.2984 258.063 52.4827C261.652 50.667 265.528 49.7521 269.669 49.7521C272.393 49.7521 274.839 50.1781 276.984 51.0231C279.137 51.8681 281.053 53.0064 282.726 54.4451L276.198 63.1325C275.204 62.3155 274.245 61.7219 273.323 61.3657C272.408 61.0096 271.471 60.828 270.527 60.828C268.482 60.828 266.694 61.3168 265.178 62.2875C263.655 63.2582 262.489 64.634 261.674 66.4008C260.859 68.1677 260.451 70.2557 260.451 72.665C260.451 75.0744 260.873 77.1764 261.71 78.9642C262.546 80.7589 263.69 82.1417 265.135 83.1124C266.579 84.0831 268.188 84.5719 269.976 84.5719C271.392 84.5719 272.758 84.2786 274.067 83.685C275.375 83.0984 276.612 82.3651 277.764 81.4922L283.191 90.487C280.989 92.3795 278.557 93.7133 275.912 94.4815C273.28 95.2497 270.777 95.6338 268.41 95.6338Z" fill="#319F5A"/>
<path d="M300.358 95.6314C297.626 95.6314 295.266 95.0308 293.278 93.8227C291.283 92.6215 289.753 91.0083 288.673 88.9831C287.6 86.9579 287.057 84.7441 287.057 82.3348C287.057 77.7257 289.023 74.1222 292.956 71.5383C296.889 68.9544 303.211 67.1946 311.921 66.2727C311.813 65.0925 311.527 64.0799 311.055 63.2349C310.583 62.3899 309.861 61.7474 308.889 61.3144C307.916 60.8815 306.672 60.658 305.149 60.658C303.361 60.658 301.53 60.9932 299.642 61.6566C297.755 62.3201 295.681 63.2698 293.428 64.4989L288.551 55.5042C290.546 54.3239 292.577 53.3113 294.651 52.4663C296.725 51.6213 298.863 50.9579 301.065 50.469C303.268 49.9802 305.528 49.7358 307.83 49.7358C311.713 49.7358 314.988 50.4551 317.67 51.8867C320.345 53.3183 322.39 55.5111 323.806 58.4582C325.222 61.4052 325.929 65.1554 325.929 69.7156V94.542H314.516L313.573 90.1633H313.179C311.341 91.7486 309.361 93.0615 307.237 94.0811C305.12 95.1216 302.825 95.6314 300.358 95.6314ZM305.163 85.0235C306.579 85.0235 307.809 84.7162 308.86 84.1016C309.911 83.4871 310.934 82.6421 311.928 81.5666V74.5761C309.039 74.9323 306.743 75.4491 305.041 76.1125C303.339 76.7829 302.131 77.5511 301.423 78.4171C300.715 79.29 300.358 80.2398 300.358 81.2594C300.358 82.5373 300.794 83.4871 301.659 84.1016C302.524 84.7162 303.69 85.0235 305.163 85.0235Z" fill="#319F5A"/>
<path d="M349.071 95.6314C345.867 95.6314 343.335 94.9889 341.476 93.7109C339.61 92.433 338.287 90.6382 337.5 88.3336C336.714 86.0291 336.32 83.3614 336.32 80.3375V33.1499H350.329V80.7984C350.329 82.2301 350.601 83.2217 351.159 83.7594C351.716 84.2972 352.246 84.5695 352.775 84.5695C353.039 84.5695 353.275 84.5556 353.483 84.5346C353.69 84.5067 353.983 84.4718 354.348 84.4159L356 94.4861C355.263 94.7934 354.319 95.0657 353.168 95.2962C352.01 95.5197 350.644 95.6314 349.071 95.6314Z" fill="#319F5A"/>
<g opacity="0.9">
<path d="M48.6697 69.2365C48.398 69.2505 48.1334 69.2505 47.8616 69.2505C42.2624 69.2505 37.178 67.1763 33.3523 63.7544C32.773 63.2446 32.2295 62.6999 31.7218 62.1343C29.0116 59.1453 27.1595 55.3952 26.566 51.2539C25.3932 52.0431 23.8843 52.9439 22.9976 52.9579C21.3815 52.9858 20.1944 52.6227 19.415 51.8894C19.0217 51.5263 18.6784 51.1701 18.4067 50.8349C18.1349 50.4997 17.7559 50.0458 17.284 49.4522L9.6467 55.0739L0 62.1622C0.636439 63.6427 1.65903 65.3746 3.03202 67.337C4.41932 69.2993 6.29288 71.3804 8.63125 73.5942C13.4081 78.0776 18.1278 80.6825 22.7902 81.3878C22.9476 81.4157 23.1192 81.4297 23.2693 81.4437C27.7745 82.0233 32.2224 81.1783 36.6346 78.9366C41.1969 76.5971 47.7901 71.0452 49.1488 69.6764L48.6697 69.2365Z" fill="#319F5A"/>
</g>
<g opacity="0.7">
<path d="M44.7031 19.5536C45.0749 19.1556 45.411 18.8204 45.7543 18.541C46.0832 18.2617 46.548 17.8776 47.1272 17.3957L41.1776 10.1748L33.5761 0.94957C32.0744 1.62697 30.3295 2.66751 28.3773 4.07818C26.4108 5.48885 24.337 7.38837 22.156 9.75578C17.708 14.5604 15.2123 19.2464 14.6474 23.8136C14.6474 23.8555 14.6331 23.8974 14.6331 23.9393C14.0825 28.4646 15.0836 32.9061 17.5936 37.2359C19.6746 40.8464 24.0438 45.7209 26.325 48.0464C26.3679 42.4805 28.6062 37.4454 32.246 33.6953C32.6965 33.2413 33.1685 32.7944 33.6619 32.3824C37.0515 29.4633 41.3707 27.5777 46.1476 27.2215C45.2251 26.0832 43.7949 24.1628 43.7377 23.0943C43.6519 21.516 43.9808 20.3428 44.7031 19.5536Z" fill="#319F5A"/>
</g>
<g opacity="0.5">
<path d="M93.1586 28.8631C91.7141 26.9426 89.7976 24.9034 87.3878 22.7595C82.4822 18.4018 77.691 15.9366 73.0143 15.3569C72.9427 15.343 72.8569 15.343 72.7854 15.329C68.1802 14.8052 63.6751 15.755 59.2343 18.1783C55.2369 20.3781 49.6949 25.1408 47.5996 27.1451H47.857C53.6279 27.1451 58.8696 29.3589 62.724 32.9554C63.0529 33.2487 63.3461 33.549 63.6178 33.8563H63.6322C66.7786 37.1525 68.8452 41.4264 69.3172 46.1472C70.4757 45.2603 72.5065 43.8217 73.6078 43.7659C75.2239 43.696 76.4253 44.0173 77.2333 44.7366C77.6267 45.0997 77.9842 45.4279 78.2702 45.7632C78.5563 46.0844 78.9353 46.5383 79.4359 47.118L86.9015 41.3077L96.3408 33.961C95.6472 32.4945 94.5888 30.7905 93.1586 28.8631Z" fill="#319F5A"/>
</g>
<g opacity="0.3">
<path d="M78.5259 58.7461C76.302 54.9681 71.5537 49.7793 69.4013 47.6354C69.4156 47.8169 69.4156 48.0125 69.4156 48.201C69.4156 53.6412 67.306 58.5925 63.8163 62.3287C63.423 62.7686 62.994 63.2016 62.5292 63.6136C59.2254 66.6166 54.9491 68.6208 50.2008 69.1236C51.1376 70.2689 52.3819 72.0148 52.4391 73.0134C52.5392 74.5917 52.2103 75.765 51.488 76.5541C51.1305 76.9521 50.7801 77.3013 50.4511 77.5807C50.1222 77.86 49.6574 78.2441 49.0781 78.726L55.0278 85.8841L62.6936 95.1163C64.1953 94.4249 65.9259 93.3704 67.8924 91.9597C69.8446 90.5351 71.9041 88.6356 74.0852 86.2682C78.5045 81.4356 80.9859 76.7357 81.5222 72.1684V72.0986C82.0728 67.5454 81.0645 63.0899 78.5259 58.7461Z" fill="#319F5A"/>
</g>
<path d="M50.2007 69.1202C49.7073 69.176 49.1924 69.2179 48.6704 69.2319C48.3987 69.2459 48.1341 69.2459 47.8624 69.2459C42.2631 69.2459 37.1788 67.1718 33.353 63.7499C33.0669 65.1885 32.5878 67.2067 31.8799 67.905C30.7286 69.0154 29.6273 69.5671 28.5332 69.5671C27.9969 69.5671 27.4963 69.5532 27.0744 69.4973C26.6382 69.4414 26.0375 69.3576 25.2724 69.2459L23.2772 81.4391L21.8613 90.1056C23.3773 90.7411 25.3367 91.2928 27.7251 91.7817C30.1064 92.2496 32.9382 92.487 36.1991 92.487C42.8138 92.487 48.0626 91.1601 51.917 88.5134C53.0683 87.7243 54.098 86.8513 55.0348 85.8806C57.3017 83.5691 59.0036 80.7338 60.1478 77.3677C61.5065 73.3661 62.3002 66.7667 62.5291 63.6102C59.2253 66.6201 54.949 68.6243 50.2007 69.1202Z" fill="#319F5A"/>
<g opacity="0.8">
<path d="M26.3247 48.2024V48.0487C26.3676 42.4829 28.6058 37.4477 32.2457 33.6976C30.7869 33.4602 28.52 32.9643 27.7835 32.2311C26.6322 31.1207 26.0672 30.0312 26.0672 28.9628C26.0672 28.439 26.0958 27.9641 26.153 27.5381C26.2102 27.1121 26.2818 26.5255 26.3962 25.7783L14.6328 23.9346L5.05045 22.4402C4.39971 23.9207 3.82048 25.8342 3.33421 28.1667C2.84079 30.5061 2.59766 33.2576 2.59766 36.4421C2.59766 42.9158 3.95635 48.0417 6.68087 51.8058C7.56045 53.021 8.54013 54.1174 9.64139 55.0741C11.9512 57.1762 14.7687 58.7544 18.0867 59.8369C22.0126 61.1079 28.3627 61.883 31.7165 62.1345C29.0063 59.1455 27.1542 55.3954 26.5606 51.2541C26.3962 50.2625 26.3247 49.2429 26.3247 48.2024Z" fill="#319F5A"/>
</g>
<g opacity="0.6">
<path d="M68.466 4.27117C66.0704 3.7893 63.2529 3.55186 59.9921 3.55186C53.3631 3.55186 48.1143 4.87873 44.2599 7.53945C43.1229 8.32859 42.0788 9.20153 41.1707 10.1722C38.8752 12.4838 37.1732 15.3191 36.0291 18.6851C34.6704 22.6727 33.8766 29.2163 33.6621 32.3868C37.0517 29.4677 41.3709 27.5821 46.1478 27.226C46.6269 27.1841 47.1131 27.1701 47.6066 27.1561H47.864C53.6348 27.1561 58.8765 29.3699 62.7309 32.9664C62.9597 31.5977 63.4818 28.9509 64.3041 28.1478C65.4554 27.0235 66.5567 26.4718 67.6508 26.4718C68.1871 26.4718 68.6877 26.4997 69.1239 26.5556C69.5458 26.6114 70.1465 26.6813 70.9117 26.793L72.7995 15.3331L74.3441 5.94721C72.8067 5.30473 70.8473 4.73906 68.466 4.27117Z" fill="#319F5A"/>
</g>
<g opacity="0.4">
<path d="M89.4921 44.2423C88.7127 43.1598 87.8474 42.1821 86.8963 41.3092C84.515 39.0256 81.5688 37.3356 78.0791 36.2042C73.81 34.8215 66.659 34.0324 63.627 33.8648C66.7734 37.161 68.84 41.4349 69.312 46.1557C69.3549 46.6376 69.3978 47.1404 69.3978 47.6362C69.4121 47.8178 69.4121 48.0134 69.4121 48.2019C69.4121 53.6421 67.3026 58.5934 63.8129 62.3296C65.2717 62.567 67.6244 63.0628 68.3895 63.8101C69.5408 64.9344 70.1058 66.0099 70.1058 67.0783C70.1058 67.6021 70.0772 68.091 70.0199 68.5169C69.9627 68.929 69.8912 69.5156 69.7768 70.2628L81.5259 72.1065L91.1225 73.6149C91.7733 72.1204 92.3525 70.207 92.8388 67.8884C93.3322 65.549 93.5753 62.7975 93.5753 59.613C93.5753 53.1253 92.2166 48.0064 89.4921 44.2423Z" fill="#319F5A"/>
</g>
</svg>
