<svg width="99" height="99" viewBox="0 0 99 99" fill="none" xmlns="http://www.w3.org/2000/svg">
<path d="M15.3369 41.1058L4.3125 30.0673M36.3107 27.564L31.8204 13.0322M83.661 41.1058L94.6854 30.0744M62.6871 27.564L67.1775 13.0322M49.4989 25.6335C19.8909 25.6335 7.45929 52.2645 7.45929 52.8161C7.45929 53.3677 19.8909 79.9916 49.4989 79.9916C79.107 79.9916 91.5386 53.3677 91.5386 52.8161C91.5386 52.2645 79.107 25.6335 49.4989 25.6335Z" stroke="#319F5A" stroke-width="8.05929" stroke-linecap="round" stroke-linejoin="round"/>
<path d="M37.5209 50.0728C37.1381 51.6539 37.073 53.2953 37.3293 54.9018C37.5857 56.5082 38.1584 58.0478 39.0143 59.4312C39.8702 60.8146 40.9922 62.0144 42.3153 62.9609C43.6384 63.9074 45.1363 64.5818 46.722 64.9449C48.3077 65.3081 49.9498 65.3529 51.5529 65.0767C53.1561 64.8004 54.6884 64.2087 56.0612 63.3357C57.4339 62.4627 58.6196 61.3259 59.5496 59.9912C60.4796 58.6564 61.1354 57.1504 61.4789 55.5603C61.8618 53.9792 61.9269 52.3378 61.6705 50.7313C61.4142 49.1249 60.8414 47.5853 59.9855 46.2019C59.1297 44.8185 58.0076 43.6187 56.6845 42.6722C55.3614 41.7257 53.8636 41.0514 52.2779 40.6882C50.6921 40.325 49.0501 40.2802 47.4469 40.5564C45.8438 40.8327 44.3114 41.4244 42.9387 42.2974C41.566 43.1704 40.3803 44.3072 39.4502 45.6419C38.5202 46.9767 37.8645 48.4827 37.5209 50.0728Z" stroke="#319F5A" stroke-width="8.05929" stroke-linecap="round" stroke-linejoin="round"/>
</svg>
