<svg width="98" height="99" viewBox="0 0 98 99" fill="none" xmlns="http://www.w3.org/2000/svg">
<path d="M32.3411 10.1689C34.5289 10.1689 36.6953 10.6043 38.7166 11.4501C40.7379 12.2958 42.5745 13.5355 44.1215 15.0983C45.6685 16.6611 46.8957 18.5165 47.733 20.5584C48.5702 22.6003 49.0011 24.7888 49.0011 26.9989V72.7511C48.9947 75.3445 48.4699 77.9099 47.4582 80.2935C46.4465 82.6771 44.9688 84.8297 43.1136 86.6224C41.2584 88.415 39.064 89.8108 36.6619 90.726C34.2598 91.6411 31.6996 92.0569 29.1346 91.9483C26.5696 91.8396 24.0527 91.2089 21.7349 90.0939C19.417 88.9788 17.346 87.4024 15.6458 85.4592C13.9457 83.516 12.6515 81.2459 11.8408 78.7852C11.0301 76.3245 10.7197 73.7237 10.9281 71.1388C6.95913 66.8252 4.45312 58.4102 4.45312 51.3742C4.45312 41.7994 9.10813 32.4864 15.7721 28.8234C15.5184 26.4726 15.7578 24.0943 16.4749 21.8433C17.192 19.5923 18.3706 17.5192 19.9339 15.7592C21.4971 13.9991 23.41 12.5916 25.5478 11.6284C27.6856 10.6652 30.0003 10.1679 32.3411 10.1689Z" stroke="#319F5A" stroke-width="8.05929" stroke-linecap="round" stroke-linejoin="round"/>
<path d="M24.5781 40.2649C22.1281 39.6992 16.5911 36.0292 15.7581 28.8729M34.7911 59.1527C44.7871 58.0213 48.7421 47.3717 49.0011 43.0369M16.0311 61.0408C13.5391 63.0208 11.5511 67.5253 10.9141 71.1317M65.6611 10.1689C61.2426 10.1689 57.005 11.9421 53.8807 15.0983C50.7563 18.2546 49.0011 22.5354 49.0011 26.9989V72.7511C49.0075 75.3445 49.5323 77.9099 50.544 80.2935C51.5557 82.6771 53.0334 84.8297 54.8886 86.6224C56.7438 88.415 58.9382 89.8108 61.3403 90.726C63.7423 91.6411 66.3026 92.0569 68.8676 91.9483C71.4326 91.8396 73.9495 91.2089 76.2673 90.0939C78.5851 88.9788 80.6562 87.4024 82.3564 85.4592C84.0565 83.516 85.3507 81.2459 86.1614 78.7852C86.972 76.3245 87.2825 73.7237 87.0741 71.1388C91.0431 66.8252 93.5421 58.4102 93.5421 51.3742C93.5421 41.7994 88.8941 32.4934 82.2301 28.8234C82.2907 28.2294 82.3211 27.6212 82.3211 26.9989C82.3211 24.7888 81.8901 22.6003 81.0529 20.5584C80.2157 18.5165 78.9885 16.6611 77.4415 15.0983C75.8944 13.5355 74.0579 12.2958 72.0366 11.4501C70.0153 10.6043 67.8489 10.1689 65.6611 10.1689Z" stroke="#319F5A" stroke-width="8.05929" stroke-linecap="round" stroke-linejoin="round"/>
<path d="M73.423 40.2651C75.873 39.6994 81.41 36.0293 82.243 28.873M63.21 59.1529C53.214 58.0215 49.259 47.3719 49 43.0371M81.97 61.041C84.462 63.021 86.45 67.5255 87.087 71.1319" stroke="#319F5A" stroke-width="8.05929" stroke-linecap="round" stroke-linejoin="round"/>
</svg>
