<?xml version="1.0" encoding="utf-8"?>
<!-- Generator: Adobe Illustrator 25.4.1, SVG Export Plug-In . SVG Version: 6.00 Build 0)  -->
<svg version="1.1" id="Capa_1" xmlns="http://www.w3.org/2000/svg" xmlns:xlink="http://www.w3.org/1999/xlink" x="0px" y="0px"
	 viewBox="0 0 99 100" style="enable-background:new 0 0 99 100;" xml:space="preserve">
<style type="text/css">
	.st0{fill:none;stroke:#FFFFFF;stroke-width:8.0593;stroke-linecap:round;stroke-linejoin:round;}
</style>
<path class="st0" d="M4.1,77l17.3,14.6c2.5,2.1,5.7,3.3,9.1,3.3H76c3.3,0,5.9-2.7,5.9-6c0-6.6-5.3-11.9-11.8-11.9H38.4 M58.8,7.4
	c-0.9,0-1.8,0.4-2.5,1c-0.7,0.7-1,1.6-1,2.5v10h-9.9c-0.9,0-1.8,0.4-2.5,1c-0.7,0.7-1,1.6-1,2.5v11.6c0,0.9,0.4,1.9,1,2.5
	c0.7,0.7,1.6,1,2.5,1h9.9v10c0,0.9,0.4,1.9,1,2.5c0.7,0.7,1.6,1,2.5,1h11.5c0.9,0,1.8-0.4,2.5-1c0.7-0.7,1-1.6,1-2.5v-10h9.9
	c0.9,0,1.8-0.4,2.5-1c0.7-0.7,1-1.6,1-2.5V24.6c0-0.9-0.4-1.9-1-2.5c-0.7-0.7-1.6-1-2.5-1h-9.9V10.9c0-0.9-0.4-1.9-1-2.5
	c-0.7-0.7-1.6-1-2.5-1L58.8,7.4z"/>
<path class="st0" d="M25.3,69.9l5.3,5.4c0.7,0.7,1.5,1.3,2.4,1.6c0.9,0.4,1.9,0.6,2.9,0.6c1,0,2-0.2,2.9-0.6s1.7-0.9,2.4-1.6
	c0.7-0.7,1.2-1.5,1.6-2.5c0.4-0.9,0.6-1.9,0.6-2.9c0-1-0.2-2-0.6-2.9c-0.4-0.9-0.9-1.8-1.6-2.5L33,56.2c-2.7-2.7-6.2-4.2-10-4.2H4.1
	"/>
</svg>
