<svg width="101" height="101" viewBox="0 0 101 101" fill="none" xmlns="http://www.w3.org/2000/svg">
<path d="M29.2852 96.4648C32.5354 96.4648 35.7538 95.8247 38.7566 94.5809C41.7594 93.3371 44.4878 91.514 46.786 89.2157C49.0843 86.9175 50.9074 84.1891 52.1512 81.1863C53.395 78.1834 54.0352 74.9651 54.0352 71.7148C54.0352 68.4646 53.395 65.2462 52.1512 62.2434C50.9074 59.2406 49.0843 56.5122 46.786 54.214C44.4878 51.9157 41.7594 50.0926 38.7566 48.8488C35.7538 47.605 32.5354 46.9648 29.2852 46.9648C22.721 46.9648 16.4258 49.5724 11.7843 54.214C7.14274 58.8555 4.53516 65.1507 4.53516 71.7148C4.53516 78.279 7.14274 84.5742 11.7843 89.2157C16.4258 93.8573 22.721 96.4648 29.2852 96.4648Z" stroke="#319F5A" stroke-width="8.05929" stroke-linecap="round" stroke-linejoin="round"/>
<path d="M30.6994 47.0354L22.2137 4.53613H4.53516" stroke="#319F5A" stroke-width="8.05929" stroke-linecap="round" stroke-linejoin="round"/>
<path d="M53.7533 75.2502H85.5748L87.4628 82.159L77.2305 44.6309C76.6731 41.2973 74.9403 38.2735 72.346 36.1072C69.7516 33.9409 66.4672 32.7754 63.0876 32.8216H27.7305M79.3519 57.5716H49.5812M89.3933 96.4645C91.2688 96.4645 93.0674 95.7195 94.3936 94.3933C95.7197 93.0672 96.4648 91.2685 96.4648 89.3931C96.4648 87.5176 95.7197 85.719 94.3936 84.3928C93.0674 83.0667 91.2688 82.3216 89.3933 82.3216C87.5179 82.3216 85.7192 83.0667 84.3931 84.3928C83.0669 85.719 82.3219 87.5176 82.3219 89.3931C82.3219 91.2685 83.0669 93.0672 84.3931 94.3933C85.7192 95.7195 87.5179 96.4645 89.3933 96.4645Z" stroke="#319F5A" stroke-width="8.05929" stroke-linecap="round" stroke-linejoin="round"/>
</svg>
