<svg width="100" height="100" viewBox="0 0 100 100" fill="none" xmlns="http://www.w3.org/2000/svg">
<path d="M71.6784 71.6794L92.928 92.929M4.53516 43.429C4.53516 53.744 8.63279 63.6366 15.9266 70.9304C23.2204 78.2242 33.113 82.3219 43.428 82.3219C53.743 82.3219 63.6356 78.2242 70.9294 70.9304C78.2232 63.6366 82.3209 53.744 82.3209 43.429C82.3209 33.114 78.2232 23.2214 70.9294 15.9276C63.6356 8.63376 53.743 4.53613 43.428 4.53613C33.113 4.53613 23.2204 8.63376 15.9266 15.9276C8.63279 23.2214 4.53516 33.114 4.53516 43.429Z" stroke="#319F5A" stroke-width="8.05929" stroke-linecap="round" stroke-linejoin="round"/>
<path d="M18.793 44.5318H29.6123L36.91 30.6152L47.9626 56.2492L57.4595 44.5318H68.0667" stroke="#319F5A" stroke-width="8.05929" stroke-linecap="round" stroke-linejoin="round"/>
</svg>
