<svg width="101" height="99" viewBox="0 0 101 99" fill="none" xmlns="http://www.w3.org/2000/svg">
<path d="M43.428 72.4817L36.3566 90.1603M57.5709 72.4817L64.6423 90.1603M29.2852 90.1603H71.7137M92.928 8.83887H8.07087C7.13314 8.83887 6.23382 9.21138 5.57074 9.87445C4.90767 10.5375 4.53516 11.4369 4.53516 12.3746V68.946C4.53516 69.8837 4.90767 70.7831 5.57074 71.4461C6.23382 72.1092 7.13314 72.4817 8.07087 72.4817H92.928C93.8658 72.4817 94.7651 72.1092 95.4282 71.4461C96.0912 70.7831 96.4637 69.8837 96.4637 68.946V12.3746C96.4637 11.4369 96.0912 10.5375 95.4282 9.87445C94.7651 9.21138 93.8658 8.83887 92.928 8.83887Z" stroke="#319F5A" stroke-width="8.05929" stroke-linecap="round" stroke-linejoin="round"/>
<path d="M45.5627 21.1152C44.7562 21.1152 43.9828 21.4356 43.4126 22.0058C42.8423 22.5761 42.522 23.3495 42.522 24.1559V32.6912H33.9938C33.1874 32.6912 32.414 33.0115 31.8437 33.5818C31.2735 34.152 30.9531 34.9254 30.9531 35.7319V45.5965C30.9531 47.2724 32.3179 48.6372 33.9938 48.6372H42.5361V57.1724C42.5361 58.8484 43.8938 60.2132 45.5768 60.2132H55.4415C56.2479 60.2132 57.0213 59.8928 57.5916 59.3226C58.1618 58.7523 58.4822 57.9789 58.4822 57.1724V48.6302H67.0174C67.8239 48.6302 68.5973 48.3098 69.1675 47.7396C69.7378 47.1693 70.0581 46.3959 70.0581 45.5894V35.7319C70.0581 34.9254 69.7378 34.152 69.1675 33.5818C68.5973 33.0115 67.8239 32.6912 67.0174 32.6912H58.4681V24.1559C58.4681 23.3495 58.1477 22.5761 57.5774 22.0058C57.0072 21.4356 56.2338 21.1152 55.4273 21.1152H45.5627Z" stroke="#319F5A" stroke-width="8.05929" stroke-linecap="round" stroke-linejoin="round"/>
</svg>
