<svg width="101" height="99" viewBox="0 0 101 99" fill="none" xmlns="http://www.w3.org/2000/svg">
<path d="M25.7089 38.6809C25.1461 37.1014 24.1088 35.7346 22.7392 34.7674C21.3695 33.8003 19.7343 33.2802 18.0576 33.2783H11.7782C9.99427 33.2808 8.27405 33.9416 6.94734 35.1341C5.62063 36.3267 4.78081 37.967 4.58891 39.7405C4.39701 41.514 4.86654 43.296 5.90746 44.7447C6.94838 46.1934 8.48744 47.2069 10.2295 47.5909L19.7901 49.684C21.7477 50.1081 23.4791 51.2414 24.651 52.8659C25.8228 54.4903 26.3521 56.4908 26.137 58.4822C25.9219 60.4736 24.9775 62.315 23.4858 63.6517C21.9941 64.9884 20.0606 65.7258 18.0576 65.722H12.648C9.11224 65.722 6.11395 63.4662 4.99667 60.3195M96.006 38.6809C95.4432 37.1014 94.4059 35.7346 93.0362 34.7674C91.6665 33.8003 90.0314 33.2802 88.3547 33.2783H82.0753C80.2914 33.2808 78.5711 33.9416 77.2444 35.1341C75.9177 36.3267 75.0779 37.967 74.886 39.7405C74.6941 41.514 75.1636 43.296 76.2045 44.7447C77.2455 46.1934 78.7845 47.2069 80.5266 47.5909L90.0872 49.684C92.0448 50.1081 93.7762 51.2414 94.948 52.8659C96.1199 54.4903 96.6492 56.4908 96.4341 58.4822C96.219 60.4736 95.2746 62.315 93.7829 63.6517C92.2912 64.9884 90.3577 65.7258 88.3547 65.722H82.945C79.4164 65.722 76.411 63.4662 75.3008 60.3195M39.682 41.3893V57.6111C39.682 62.0944 43.3167 65.722 47.8 65.722H53.2026C57.6859 65.722 61.3206 62.0944 61.3206 57.6111V41.3893C61.3206 36.913 57.6859 33.2783 53.2026 33.2783H47.8C43.3167 33.2783 39.6891 36.913 39.6891 41.3893" stroke="#319F5A" stroke-width="8.05929" stroke-linecap="round" stroke-linejoin="round"/>
</svg>
