<svg width="99" height="99" viewBox="0 0 99 99" fill="none" xmlns="http://www.w3.org/2000/svg">
<path d="M14.793 63.3179C14.793 30.464 49.4995 4.24316 49.4995 4.24316C49.4995 4.24316 84.2061 30.464 84.2061 63.3179C84.2061 84.5463 66.6265 94.7574 49.4995 94.7574C32.3725 94.7574 14.793 84.5463 14.793 63.3179Z" stroke="#319F5A" stroke-width="8.05929" stroke-linecap="round" stroke-linejoin="round"/>
<path d="M45.1084 42.5274C44.7531 42.5256 44.401 42.5941 44.0724 42.7292C43.7439 42.8643 43.4453 43.0632 43.1941 43.3144C42.9429 43.5656 42.744 43.8642 42.6089 44.1928C42.4738 44.5213 42.4052 44.8735 42.4071 45.2287V52.8376H34.7912C34.4359 52.8357 34.0838 52.9043 33.7552 53.0394C33.4266 53.1745 33.1281 53.3734 32.8769 53.6246C32.6257 53.8758 32.4268 54.1743 32.2917 54.5029C32.1566 54.8315 32.088 55.1836 32.0899 55.5389V64.3216C32.0899 65.8207 33.2991 67.0299 34.7912 67.0299H42.4V74.6317C42.4 76.1238 43.6022 77.333 45.1013 77.333H53.884C54.2399 77.3358 54.5928 77.2679 54.9222 77.1332C55.2516 76.9986 55.5509 76.7998 55.8029 76.5485C56.0549 76.2972 56.2544 75.9984 56.3899 75.6693C56.5254 75.3403 56.5943 74.9876 56.5924 74.6317V67.0299H64.1942C64.55 67.0318 64.9027 66.963 65.2318 66.8275C65.5608 66.6919 65.8597 66.4924 66.111 66.2404C66.3623 65.9885 66.561 65.6891 66.6957 65.3597C66.8304 65.0303 66.8983 64.6774 66.8955 64.3216V55.5389C66.8973 55.1836 66.8287 54.8315 66.6937 54.5029C66.5586 54.1743 66.3597 53.8758 66.1085 53.6246C65.8572 53.3734 65.5587 53.1745 65.2301 53.0394C64.9015 52.9043 64.5494 52.8357 64.1942 52.8376H56.5995V45.2287C56.6013 44.8729 56.5325 44.5202 56.397 44.1911C56.2615 43.8621 56.0619 43.5632 55.81 43.3119C55.558 43.0606 55.2586 42.8618 54.9292 42.7272C54.5998 42.5925 54.247 42.5246 53.8911 42.5274H45.1084Z" stroke="#319F5A" stroke-width="8.05929" stroke-linecap="round" stroke-linejoin="round"/>
</svg>
