<svg width="101" height="102" viewBox="0 0 101 102" fill="none" xmlns="http://www.w3.org/2000/svg">
<path d="M32.043 28.7859L72.4915 69.643M47.6001 13.0716C50.2432 10.3307 53.3988 8.14746 56.884 6.64847C60.3692 5.14947 64.1143 4.36463 67.9022 4.33949C71.6901 4.31435 75.4452 5.04942 78.9495 6.50203C82.4539 7.95463 85.6377 10.0958 88.3162 12.8014C90.9947 15.5069 93.1145 18.7229 94.5525 22.2627C95.9906 25.8024 96.7183 29.5954 96.6935 33.4216C96.6686 37.2477 95.8916 41.0307 94.4076 44.5511C92.9236 48.0714 90.7621 51.259 88.0487 53.9287L53.3987 88.9287C50.7556 91.6696 47.5999 93.8529 44.1148 95.3519C40.6296 96.8509 36.8844 97.6357 33.0965 97.6609C29.3087 97.686 25.5536 96.9509 22.0492 95.4983C18.5449 94.0457 15.3611 91.9045 12.6826 89.199C10.0041 86.4934 7.8843 83.2774 6.44622 79.7377C5.00813 76.1979 4.28042 72.4049 4.3053 68.5788C4.33019 64.7527 5.10719 60.9696 6.59119 57.4493C8.07519 53.9289 10.2366 50.7414 12.9501 48.0716L47.6001 13.0716Z" stroke="#319F5A" stroke-width="8.05929" stroke-linecap="round" stroke-linejoin="round"/>
</svg>
