<svg width="99" height="101" viewBox="0 0 99 101" fill="none" xmlns="http://www.w3.org/2000/svg">
<path d="M34.4644 82.8165C5.62008 61.7366 31.2611 19.5697 44.0816 13.5448C54.3352 8.7292 63.3088 13.5448 66.5122 16.5573C78.6255 27.9352 65.3807 40.3173 71.7945 49.3545C91.5097 72.6195 62.3329 103.182 34.4644 82.8165Z" stroke="#319F5A" stroke-width="8.05929" stroke-linecap="round" stroke-linejoin="round"/>
<path d="M53.2475 11.5084V4.83301M42.0392 14.7471L38.3055 9.21729M33.8788 22.9571L28.2217 19.4214M26.9205 34.2926L20.8886 31.4357M22.5787 46.5403L16.0305 45.2533M21.3129 58.3637L14.6445 58.5546M23.9222 70.1235L17.7842 72.7329M30.7179 79.7194L26.072 84.5068M41.1553 86.7414L38.0863 92.6672M53.2475 96.1676V89.4921M65.9548 93.6502L63.0697 87.6324M76.9155 85.9423L72.213 81.2044M84.3618 71.658L77.8348 70.2437M83.1384 55.8039L76.9085 58.2082M76.6044 44.1006L70.3815 46.5049M78.252 32.157L71.619 31.4004M76.3215 18.5799L70.1411 21.0973M66.5417 8.38994L62.7868 13.9057M44.4223 66.4605C44.4223 68.7654 45.338 70.976 46.9678 72.6058C48.5976 74.2357 50.8082 75.1513 53.1131 75.1513C55.418 75.1513 57.6286 74.2357 59.2584 72.6058C60.8883 70.976 61.8039 68.7654 61.8039 66.4605C61.8039 64.1556 60.8883 61.945 59.2584 60.3152C57.6286 58.6854 55.418 57.7697 53.1131 57.7697C50.8082 57.7697 48.5976 58.6854 46.9678 60.3152C45.338 61.945 44.4223 64.1556 44.4223 66.4605ZM44.4365 32.8712C44.4365 34.7561 45.1852 36.5637 46.518 37.8965C47.8508 39.2293 49.6584 39.978 51.5432 39.978C53.4281 39.978 55.2357 39.2293 56.5685 37.8965C57.9013 36.5637 58.65 34.7561 58.65 32.8712C58.65 30.9864 57.9013 29.1787 56.5685 27.846C55.2357 26.5132 53.4281 25.7644 51.5432 25.7644C49.6584 25.7644 47.8508 26.5132 46.518 27.846C45.1852 29.1787 44.4365 30.9864 44.4365 32.8712ZM36.4316 52.1621C35.9627 52.1621 35.5131 51.9758 35.1815 51.6443C34.85 51.3127 34.6637 50.8631 34.6637 50.3942C34.6637 49.9254 34.85 49.4757 35.1815 49.1442C35.5131 48.8126 35.9627 48.6264 36.4316 48.6264C36.9005 48.6264 37.3501 48.8126 37.6817 49.1442C38.0132 49.4757 38.1995 49.9254 38.1995 50.3942C38.1995 50.8631 38.0132 51.3127 37.6817 51.6443C37.3501 51.9758 36.9005 52.1621 36.4316 52.1621Z" stroke="#319F5A" stroke-width="8.05929" stroke-linecap="round" stroke-linejoin="round"/>
</svg>
