<svg width="101" height="101" viewBox="0 0 101 101" fill="none" xmlns="http://www.w3.org/2000/svg">
<path d="M4.82031 23.5583C7.04074 17.2081 15.781 4.53613 32.9434 4.53613C54.4052 4.53613 66.7236 22.7804 62.9616 39.8579C59.7087 54.6655 50.4664 59.8276 46.3932 63.3563C40.4391 68.5184 40.4391 72.7259 38.2823 79.5357C37.0307 83.4745 32.6959 89.0892 26.6427 89.7893C22.2585 90.2843 16.9902 88.1982 11.3402 81.0207M96.466 70.2014C96.466 77.1669 93.699 83.847 88.7737 88.7724C83.8484 93.6977 77.1682 96.4647 70.2027 96.4647M84.3244 69.7064C84.3244 73.4517 82.8366 77.0436 80.1882 79.6919C77.5399 82.3403 73.948 83.8281 70.2027 83.8281M72.5787 65.7747C72.575 67.514 71.8824 69.181 70.6526 70.4108C69.4227 71.6407 67.7557 72.3333 66.0165 72.337" stroke="#319F5A" stroke-width="8.05929" stroke-linecap="round" stroke-linejoin="round"/>
<path d="M17.591 32.7937C18.878 29.6115 23.4603 23.417 31.5217 24.0251C39.5832 24.6262 46.499 32.7937 43.6492 40.3601C40.7924 47.9407 37.0233 45.593 33.5937 50.6844C30.164 55.7829 31.444 66.0082 23.8139 67.5356C19.0619 68.4832 16.5586 65.7536 16.5586 65.7536" stroke="#319F5A" stroke-width="8.05929" stroke-linecap="round" stroke-linejoin="round"/>
</svg>
