<svg width="98" height="99" viewBox="0 0 98 99" fill="none" xmlns="http://www.w3.org/2000/svg">
<path d="M10.4308 36.2908C12.6988 15.4513 30.8498 13.443 43.2048 20.6771C47.0898 22.9541 50.9048 22.9541 54.7968 20.6771C67.1518 13.443 85.3028 15.4513 87.5708 36.2908C89.8458 57.1939 78.1908 79.3133 71.9468 87.7849C70.5258 89.7154 68.2368 90.6347 65.8568 90.6347C63.9549 90.6347 62.0994 90.0418 60.5434 88.9369C58.9875 87.8321 57.8069 86.2691 57.1628 84.4613L54.9578 78.2809C54.5148 77.044 53.7052 75.9751 52.6393 75.2196C51.5734 74.4641 50.3029 74.0588 49.0008 74.0588C47.6987 74.0588 46.4283 74.4641 45.3624 75.2196C44.2965 75.9751 43.4869 77.044 43.0438 78.2809L40.8388 84.4613C40.1948 86.2691 39.0142 87.8321 37.4582 88.9369C35.9023 90.0418 34.0467 90.6347 32.1448 90.6347C29.7648 90.6347 27.4688 89.7154 26.0548 87.7849C19.8108 79.3133 8.15583 57.1939 10.4308 36.2908Z" stroke="#319F5A" stroke-width="8.05929" stroke-linecap="round" stroke-linejoin="round"/>
<path d="M58.0388 37.3369C50.6188 40.0665 46.6288 40.0099 39.9648 37.3369" stroke="#319F5A" stroke-width="8.05929" stroke-linecap="round" stroke-linejoin="round"/>
</svg>
