<svg width="99" height="101" viewBox="0 0 99 101" fill="none" xmlns="http://www.w3.org/2000/svg">
<path d="M10.6055 56.4263V25.7504C10.6055 20.124 12.8405 14.7281 16.819 10.7497C20.7974 6.7712 26.1934 4.53613 31.8198 4.53613H67.1769C72.8033 4.53613 78.1992 6.7712 82.1777 10.7497C86.1561 14.7281 88.3912 20.124 88.3912 25.7504V56.4263C88.3913 60.8784 86.9906 65.2178 84.3876 68.8298C81.7846 72.4417 78.1112 75.1432 73.8877 76.5516L67.1769 78.7861V82.3218C67.1769 84.1973 66.4319 85.9959 65.1057 87.3221C63.7796 88.6482 61.9809 89.3933 60.1055 89.3933H38.8912C37.0157 89.3933 35.2171 88.6482 33.8909 87.3221C32.5648 85.9959 31.8198 84.1973 31.8198 82.3218V78.7861L25.109 76.5516C20.8854 75.1432 17.212 72.4417 14.609 68.8298C12.006 65.2178 10.6054 60.8784 10.6055 56.4263Z" stroke="#319F5A" stroke-width="8.05929" stroke-linecap="round" stroke-linejoin="round"/>
<path d="M10.6055 57.8473C15.3221 54.7076 29.6983 50.3092 49.4983 57.8473C69.2983 65.3784 83.6745 59.4172 88.3912 55.4926M57.4042 33.9601C57.4042 29.5051 49.4983 18.4736 49.4983 18.4736C49.4983 18.4736 41.5783 29.5121 41.5783 33.9671C41.5783 36.1593 42.4128 38.2524 43.8978 39.8011C45.3828 41.3497 47.391 42.2124 49.4842 42.2124C51.5773 42.2124 53.5998 41.3426 55.0848 39.8011C56.5698 38.2595 57.3971 36.1593 57.3971 33.9671M49.4983 89.393V96.4644" stroke="#319F5A" stroke-width="8.05929" stroke-linecap="round" stroke-linejoin="round"/>
</svg>
