<svg width="99" height="101" viewBox="0 0 99 101" fill="none" xmlns="http://www.w3.org/2000/svg">
<path d="M67.1769 96.4643V78.7858H81.3198C83.1952 78.7858 84.9939 78.0407 86.32 76.7146C87.6462 75.3884 88.3912 73.5898 88.3912 71.7143V43.4286C88.3899 36.5165 86.5466 29.7296 83.0509 23.7665C79.5552 17.8035 74.5335 12.8798 68.5028 9.50228C62.472 6.12477 55.6501 4.41548 48.7393 4.55038C41.8285 4.68528 35.0785 6.65948 29.1841 10.2698C23.2898 13.8801 18.4641 18.996 15.2038 25.0909C11.9435 31.1858 10.3664 38.0395 10.6348 44.9464C10.9033 51.8533 13.0076 58.5639 16.7312 64.3874C20.4547 70.2108 25.663 74.9367 31.8198 78.0786V96.4643" stroke="#319F5A" stroke-width="8.05929" stroke-linecap="round" stroke-linejoin="round"/>
<path d="M38.8911 24.4205C34.2441 27.1079 30.6844 31.3371 28.8296 36.3746C26.9747 41.4121 26.9418 46.9399 28.7365 51.9991C29.5851 54.368 32.1308 55.556 34.5634 54.9125C46.8465 51.6597 59.3487 42.8557 66.9505 35.9965C68.9659 34.1791 69.376 31.1384 67.5869 29.1018C64.0765 25.1333 59.3026 22.4996 54.0734 21.6466C48.8442 20.7935 43.4808 21.7734 38.8911 24.4205Z" stroke="#319F5A" stroke-width="8.05929" stroke-linecap="round" stroke-linejoin="round"/>
</svg>
