<svg width="101" height="101" viewBox="0 0 101 101" fill="none" xmlns="http://www.w3.org/2000/svg">
<path d="M11.6066 15.1433C9.73113 15.1433 7.93248 15.8883 6.60633 17.2145C5.28018 18.5406 4.53516 20.3392 4.53516 22.2147V89.3933C4.53516 91.2687 5.28018 93.0674 6.60633 94.3935C7.93248 95.7197 9.73113 96.4647 11.6066 96.4647H89.3923C91.2678 96.4647 93.0664 95.7197 94.3926 94.3935C95.7187 93.0674 96.4637 91.2687 96.4637 89.3933V22.2147C96.4637 20.3392 95.7187 18.5406 94.3926 17.2145C93.0664 15.8883 91.2678 15.1433 89.3923 15.1433H75.2494M25.7494 4.53613V25.7504M75.2494 4.53613V25.7504M25.7494 15.1433H61.1066" stroke="#319F5A" stroke-width="8.05929" stroke-linecap="round" stroke-linejoin="round"/>
<path d="M44.7585 33.2607C43.8207 33.2607 42.9214 33.6333 42.2583 34.2963C41.5953 34.9594 41.2228 35.8587 41.2228 36.7965V46.7389H31.2662C30.3285 46.7389 29.4291 47.1114 28.7661 47.7745C28.103 48.4376 27.7305 49.3369 27.7305 50.2746V61.7657C27.7305 62.7034 28.103 63.6027 28.7661 64.2658C29.4291 64.9289 30.3285 65.3014 31.2662 65.3014H41.2157V75.2438C41.2157 76.1815 41.5882 77.0809 42.2513 77.7439C42.9143 78.407 43.8137 78.7795 44.7514 78.7795H56.2425C56.7068 78.7795 57.1666 78.6881 57.5955 78.5104C58.0245 78.3327 58.4143 78.0723 58.7426 77.7439C59.0709 77.4156 59.3314 77.0259 59.509 76.5969C59.6867 76.1679 59.7782 75.7081 59.7782 75.2438V65.3014H69.7206C70.6583 65.3014 71.5577 64.9289 72.2207 64.2658C72.8838 63.6027 73.2563 62.7034 73.2563 61.7657V50.2746C73.2563 49.3369 72.8838 48.4376 72.2207 47.7745C71.5577 47.1114 70.6583 46.7389 69.7206 46.7389H59.7853V36.7965C59.7853 35.8587 59.4127 34.9594 58.7497 34.2963C58.0866 33.6333 57.1873 33.2607 56.2495 33.2607H44.7585Z" stroke="#319F5A" stroke-width="8.05929" stroke-linecap="round" stroke-linejoin="round"/>
</svg>
