<svg width="101" height="101" viewBox="0 0 101 101" fill="none" xmlns="http://www.w3.org/2000/svg">
<path d="M36.3566 61.1076H64.6423M50.4994 46.9647V75.2504M71.7137 25.7504V11.6076C71.7137 9.7321 70.9687 7.93346 69.6426 6.60731C68.3164 5.28116 66.5178 4.53613 64.6423 4.53613H36.3566C34.4811 4.53613 32.6825 5.28116 31.3563 6.60731C30.0302 7.93346 29.2852 9.7321 29.2852 11.6076V25.7504M89.3923 25.7504H11.6066C9.73113 25.7504 7.93248 26.4954 6.60633 27.8216C5.28018 29.1477 4.53516 30.9464 4.53516 32.8218V89.3933C4.53516 91.2687 5.28018 93.0674 6.60633 94.3935C7.93248 95.7197 9.73113 96.4647 11.6066 96.4647H89.3923C91.2678 96.4647 93.0664 95.7197 94.3925 94.3935C95.7187 93.0674 96.4637 91.2687 96.4637 89.3933V32.8218C96.4637 30.9464 95.7187 29.1477 94.3925 27.8216C93.0664 26.4954 91.2678 25.7504 89.3923 25.7504Z" stroke="#319F5A" stroke-width="8.05929" stroke-linecap="round" stroke-linejoin="round"/>
</svg>
