<svg width="99" height="100" viewBox="0 0 99 100" fill="none" xmlns="http://www.w3.org/2000/svg">
<path d="M4.12109 77.0074L21.4037 91.5574C23.9452 93.6949 27.148 94.8651 30.4551 94.8646H76.0163C79.2692 94.8646 81.9068 92.2003 81.9068 88.9146C81.9068 82.3431 76.6315 77.0074 70.1187 77.0074H38.4458M58.7974 7.36457C57.8597 7.36457 56.9603 7.74084 56.2973 8.41061C55.6342 9.08038 55.2617 9.98879 55.2617 10.936V20.986H45.3192C44.3815 20.986 43.4822 21.3623 42.8191 22.032C42.156 22.7018 41.7835 23.6102 41.7835 24.5574V36.1646C41.7835 37.1118 42.156 38.0202 42.8191 38.6899C43.4822 39.3597 44.3815 39.736 45.3192 39.736H55.2617V49.7788C55.2617 50.726 55.6342 51.6345 56.2973 52.3042C56.9603 52.974 57.8597 53.3503 58.7974 53.3503H70.2885C71.2262 53.3503 72.1255 52.974 72.7886 52.3042C73.4517 51.6345 73.8242 50.726 73.8242 49.7788V39.736H83.7666C84.7043 39.736 85.6037 39.3597 86.2667 38.6899C86.9298 38.0202 87.3023 37.1118 87.3023 36.1646V24.5574C87.3023 23.6102 86.9298 22.7018 86.2667 22.032C85.6037 21.3623 84.7043 20.986 83.7666 20.986H73.8242V10.9289C73.8242 9.98165 73.4517 9.07324 72.7886 8.40347C72.1255 7.7337 71.2262 7.35742 70.2885 7.35742L58.7974 7.36457Z" stroke="#319F5A" stroke-width="8.05929" stroke-linecap="round" stroke-linejoin="round"/>
<path d="M25.3354 69.865L30.639 75.2221C31.3354 75.9256 32.1623 76.4837 33.0722 76.8644C33.9822 77.2451 34.9576 77.4411 35.9425 77.4411C36.9275 77.4411 37.9028 77.2451 38.8128 76.8644C39.7228 76.4837 40.5496 75.9256 41.2461 75.2221C41.9426 74.5186 42.495 73.6834 42.872 72.7642C43.2489 71.845 43.4429 70.8599 43.4429 69.865C43.4429 68.87 43.2489 67.8849 42.872 66.9657C42.495 66.0465 41.9426 65.2113 41.2461 64.5078L33.0149 56.1935C30.3633 53.5143 26.7666 52.0086 23.016 52.0078H4.12109" stroke="#319F5A" stroke-width="8.05929" stroke-linecap="round" stroke-linejoin="round"/>
</svg>
