<?xml version="1.0" encoding="utf-8"?>
<!-- Generator: Adobe Illustrator 25.4.1, SVG Export Plug-In . SVG Version: 6.00 Build 0)  -->
<svg version="1.1" id="Capa_1" xmlns="http://www.w3.org/2000/svg" xmlns:xlink="http://www.w3.org/1999/xlink" x="0px" y="0px"
	 viewBox="0 0 101 101" style="enable-background:new 0 0 101 101;" xml:space="preserve">
<style type="text/css">
	.st0{fill:none;stroke:#FFFFFF;stroke-width:8.0593;stroke-linecap:round;stroke-linejoin:round;}
</style>
<path class="st0" d="M96.2,23.4H76.8c-0.2,0-0.4,0-0.6-0.1c-0.2-0.1-0.4-0.2-0.5-0.3c-0.1-0.1-0.3-0.3-0.3-0.5
	c-0.1-0.2-0.1-0.4-0.1-0.6c0-0.4,0.1-0.7,0.4-1L89.5,5.1c0.1-0.2,0.3-0.3,0.5-0.4c0.2-0.1,0.4-0.1,0.6-0.1C91.4,4.6,92,5.2,92,6
	v23.7 M63.6,29.7H46.8v-3.6c0-1.2,0.4-2.4,1-3.4c0.7-1,1.6-1.8,2.7-2.3l9.3-4.1c1.3-0.6,2.3-1.6,3-2.8c0.6-1.3,0.8-2.7,0.6-4.1
	c-0.3-1.4-1-2.6-2.1-3.5s-2.5-1.4-3.9-1.4h-4.4c-1.3,0-2.6,0.4-3.6,1.2s-1.9,1.8-2.3,3 M54.1,93.4c3.7,2.4,8,3.4,12.4,2.9
	c4.3-0.5,8.4-2.4,11.5-5.5l2.7-2.7c1.2-1.2,1.9-2.8,1.9-4.5c0-1.7-0.7-3.3-1.9-4.5L69.3,67.9c-1.2-1.2-2.8-1.9-4.5-1.9
	c-1.7,0-3.3,0.7-4.5,1.9c-1.2,1.2-2.8,1.9-4.5,1.9c-1.7,0-3.3-0.7-4.5-1.9l-18-18c-1.2-1.2-1.9-2.8-1.9-4.5c0-1.7,0.7-3.3,1.9-4.5
	c1.2-1.2,1.9-2.8,1.9-4.5c0-1.7-0.7-3.3-1.9-4.5L22.3,20.5c-1.2-1.2-2.8-1.9-4.5-1.9s-3.3,0.7-4.5,1.9l-2.7,2.7
	c-3.1,3-5.1,7.1-5.7,11.4C4.4,38.9,5.4,43.3,7.7,47C20,65.3,35.8,81.1,54.1,93.4z"/>
</svg>
