<svg width="99" height="99" viewBox="0 0 99 99" fill="none" xmlns="http://www.w3.org/2000/svg">
<path d="M64.7679 76.1801V28.2853C64.7679 26.4098 64.0229 24.6112 62.6967 23.285C61.3706 21.9589 59.5719 21.2139 57.6965 21.2139H12.0363C10.1608 21.2139 8.36217 21.9589 7.03602 23.285C5.70987 24.6112 4.96484 26.4098 4.96484 28.2853V75.1406C4.96484 77.016 5.70987 78.8147 7.03602 80.1408C8.36217 81.467 10.1608 82.212 12.0363 82.212H17.6015M94.0366 54.6759H64.775" stroke="#319F5A" stroke-width="8.05929" stroke-linecap="round" stroke-linejoin="round"/>
<path d="M82.2999 82.2116H87.1226C88.056 82.2116 88.9802 82.0269 89.8419 81.668C90.7035 81.3091 91.4856 80.7831 92.143 80.1205C92.8004 79.4578 93.32 78.6716 93.6721 77.8071C94.0241 76.9426 94.2015 76.017 94.194 75.0836L94.0243 52.5965L84.1809 32.4429C83.6003 31.2512 82.6964 30.2467 81.5723 29.544C80.4482 28.8413 79.1493 28.4687 77.8237 28.4688H64.6708M17.6953 82.4237C17.6953 85.0419 18.7354 87.5528 20.5867 89.4041C22.438 91.2554 24.9489 92.2955 27.567 92.2955C30.1852 92.2955 32.6961 91.2554 34.5474 89.4041C36.3987 87.5528 37.4387 85.0419 37.4387 82.4237C37.4387 79.8056 36.3987 77.2947 34.5474 75.4434C32.6961 73.5921 30.1852 72.552 27.567 72.552C24.9489 72.552 22.438 73.5921 20.5867 75.4434C18.7354 77.2947 17.6953 79.8056 17.6953 82.4237Z" stroke="#319F5A" stroke-width="8.05929" stroke-linecap="round" stroke-linejoin="round"/>
<path d="M24.2617 49.4995H45.4689M34.8618 38.8994V60.0996M62.504 82.2119H37.4358M62.504 82.4241C62.504 85.0422 63.5441 87.5531 65.3954 89.4044C67.2467 91.2557 69.7576 92.2958 72.3757 92.2958C74.9939 92.2958 77.5048 91.2557 79.3561 89.4044C81.2074 87.5531 82.2474 85.0422 82.2474 82.4241C82.2474 79.8059 81.2074 77.295 79.3561 75.4437C77.5048 73.5924 74.9939 72.5523 72.3757 72.5523C69.7576 72.5523 67.2467 73.5924 65.3954 75.4437C63.5441 77.295 62.504 79.8059 62.504 82.4241Z" stroke="#319F5A" stroke-width="8.05929" stroke-linecap="round" stroke-linejoin="round"/>
</svg>
