<svg width="101" height="99" viewBox="0 0 101 99" fill="none" xmlns="http://www.w3.org/2000/svg">
<path d="M22.3622 90.1599L8.82745 76.6252C6.17497 73.9735 4.68439 70.3768 4.68359 66.6262V37.1242C4.68359 35.2487 5.42862 33.4501 6.75477 32.1239C8.08092 30.7978 9.87956 30.0527 11.755 30.0527C13.6305 30.0527 15.4291 30.7978 16.7553 32.1239C18.0814 33.4501 18.8265 35.2487 18.8265 37.1242V58.3384M78.6366 90.1599L92.1713 76.6252C94.8238 73.9735 96.3144 70.3768 96.3152 66.6262V37.1242C96.3152 35.2487 95.5701 33.4501 94.244 32.1239C92.9178 30.7978 91.1192 30.0527 89.2437 30.0527C87.3683 30.0527 85.5696 30.7978 84.2435 32.1239C82.9173 33.4501 82.1723 35.2487 82.1723 37.1242V58.3384" stroke="#319F5A" stroke-width="8.05929" stroke-linecap="round" stroke-linejoin="round"/>
<path d="M25.297 71.2654L20.2975 66.2659C19.0094 64.9323 18.2967 63.146 18.3128 61.2919C18.3289 59.4378 19.0726 57.6642 20.3837 56.3531C21.6948 55.042 23.4684 54.2983 25.3225 54.2822C27.1766 54.2661 28.9628 54.9788 30.2965 56.2669L39.4399 65.4103C42.0898 68.0631 43.5778 71.6597 43.5767 75.4093V90.1603M75.7022 71.2654L80.7017 66.2659C81.9898 64.9323 82.7026 63.146 82.6864 61.2919C82.6703 59.4378 81.9266 57.6642 80.6155 56.3531C79.3044 55.042 77.5308 54.2983 75.6767 54.2822C73.8226 54.2661 72.0364 54.9788 70.7027 56.2669L61.5593 65.4103C58.9094 68.0631 57.4215 71.6597 57.4225 75.4093V90.1603M64.791 36.5306C64.791 28.5611 50.6481 8.83887 50.6481 8.83887C50.6481 8.83887 36.5052 28.5682 36.5052 36.5306C36.5052 40.434 37.9973 44.1889 40.6491 46.9539C43.3009 49.7117 46.9002 51.2674 50.6481 51.2674C54.396 51.2674 58.0024 49.7117 60.6542 46.9539C63.3233 44.1414 64.8051 40.408 64.791 36.5306Z" stroke="#319F5A" stroke-width="8.05929" stroke-linecap="round" stroke-linejoin="round"/>
</svg>
