<svg width="101" height="101" viewBox="0 0 101 101" fill="none" xmlns="http://www.w3.org/2000/svg">
<path d="M23.1332 56.6518L56.6518 23.1332M44.3475 77.866L77.866 44.3475M56.086 89.5339C60.5442 93.8588 66.5246 96.2566 72.7357 96.2095C78.9467 96.1624 84.8901 93.6741 89.2821 89.2821C93.6741 84.8901 96.1624 78.9467 96.2095 72.7357C96.2566 66.5246 93.8588 60.5442 89.5339 56.086L44.9132 11.4653C40.455 7.14044 34.4747 4.74263 28.2636 4.78974C22.0525 4.83686 16.1092 7.32512 11.7171 11.7171C7.32512 16.1092 4.83686 22.0525 4.78974 28.2636C4.74263 34.4747 7.14044 40.455 11.4653 44.9132L56.086 89.5339Z" stroke="#319F5A" stroke-width="8.05929" stroke-linecap="round" stroke-linejoin="round"/>
</svg>
