<svg width="101" height="102" viewBox="0 0 101 102" fill="none" xmlns="http://www.w3.org/2000/svg">
<path d="M50.4994 22.4284L18.1123 54.4999C16.7973 55.8266 15.7542 57.4022 15.0425 59.1364C14.3307 60.8707 13.9644 62.7296 13.9644 64.607C13.9644 66.4844 14.3307 68.3433 15.0425 70.0776C15.7542 71.8118 16.7973 73.3874 18.1123 74.7141L27.0223 83.7141C28.3358 85.0424 29.8956 86.0961 31.6125 86.815C33.3294 87.5339 35.1698 87.904 37.0284 87.904C38.887 87.904 40.7273 87.5339 42.4442 86.815C44.1612 86.0961 45.721 85.0424 47.0344 83.7141L78.7852 50.9999M75.2494 4.57129L96.4637 25.9999M64.6423 36.7141L85.8566 15.2856M22.5673 79.2141L4.53516 97.4284M39.8923 11.7141L89.3923 61.7141" stroke="#319F5A" stroke-width="8.05929" stroke-linecap="round" stroke-linejoin="round"/>
</svg>
