<?xml version="1.0" encoding="utf-8"?>
<!-- Generator: Adobe Illustrator 25.4.1, SVG Export Plug-In . SVG Version: 6.00 Build 0)  -->
<svg version="1.1" id="Capa_1" xmlns="http://www.w3.org/2000/svg" xmlns:xlink="http://www.w3.org/1999/xlink" x="0px" y="0px"
	 viewBox="0 0 99 99" style="enable-background:new 0 0 99 99;" xml:space="preserve">
<style type="text/css">
	.st0{fill:none;stroke:#FFFFFF;stroke-width:8.0593;stroke-linecap:round;stroke-linejoin:round;}
</style>
<path class="st0" d="M12.3,11.7H4.6v25.4c0,6,2.4,11.8,6.7,16.1c4.3,4.3,10.1,6.7,16.1,6.7c6,0,11.8-2.4,16.1-6.7
	c4.3-4.3,6.7-10.1,6.7-16.1V11.7h-7.7 M68.1,30.2c-0.4,1.6-0.4,3.2-0.2,4.8c0.3,1.6,0.8,3.1,1.7,4.5c0.9,1.4,2,2.6,3.3,3.5
	c1.3,0.9,2.8,1.6,4.4,2c1.6,0.4,3.2,0.4,4.8,0.1c1.6-0.3,3.1-0.9,4.5-1.7c1.4-0.9,2.6-2,3.5-3.3c0.9-1.3,1.6-2.8,1.9-4.4
	c0.4-1.6,0.4-3.2,0.2-4.8c-0.3-1.6-0.8-3.1-1.7-4.5c-0.9-1.4-2-2.6-3.3-3.5c-1.3-0.9-2.8-1.6-4.4-2c-1.6-0.4-3.2-0.4-4.8-0.1
	c-1.6,0.3-3.1,0.9-4.5,1.7c-1.4,0.9-2.6,2-3.5,3.3C69.1,27.1,68.4,28.6,68.1,30.2z"/>
<path class="st0" d="M27.8,60.1v8.5c0,6.9,2.8,13.6,7.7,18.5s11.6,7.7,18.5,7.7c6.9,0,13.6-2.8,18.5-7.7c4.9-4.9,7.7-11.6,7.7-18.5
	v-22"/>
</svg>
