<svg width="46" height="35" viewBox="0 0 46 35" fill="none" xmlns="http://www.w3.org/2000/svg">
<path d="M44.572 6.19751C44.156 3.86084 42.174 2.15918 39.8738 1.62793C36.4317 0.88501 30.0614 0.35376 23.1691 0.35376C16.2808 0.35376 9.80855 0.88501 6.36238 1.62793C4.0663 2.15918 2.08016 3.75293 1.66418 6.19751C1.24411 8.85376 0.828125 12.5725 0.828125 17.3538C0.828125 22.135 1.24411 25.8538 1.76614 28.51C2.1862 30.8467 4.16826 32.5483 6.46434 33.0796C10.1185 33.8225 16.3828 34.3538 23.2751 34.3538C30.1674 34.3538 36.4317 33.8225 40.0859 33.0796C42.382 32.5483 44.364 30.9546 44.7841 28.51C45.2001 25.8538 45.7221 22.0271 45.8281 17.3538C45.6161 12.5725 45.094 8.85376 44.572 6.19751ZM17.5329 24.7913V9.91626L30.2694 17.3538L17.5329 24.7913Z" fill="white"/>
</svg>
