<?xml version="1.0" encoding="UTF-8"?>
<svg id="Layer_1" xmlns="http://www.w3.org/2000/svg" version="1.1" viewBox="0 0 38 38">
  <!-- Generator: Adobe Illustrator 30.0.0, SVG Export Plug-In . SVG Version: 2.1.1 Build 123)  -->
  <defs>
    <style>
      .st0 {
        fill: #fff;
      }
    </style>
  </defs>
  <path class="st0" d="M19,.6C8.6.6.2,8.8.2,19s8.4,18.4,18.8,18.4,18.8-8.2,18.8-18.4S29.4.6,19,.6ZM25.6,12.9h-2.7c-1.7,0-2.3.9-2.3,2.6v2h4.9l-.7,4.6h-4.3v12.2c-.5,0-1,0-1.6,0-1.1,0-2.1-.1-3.1-.3v-12h-4.7v-4.6h4.7v-2.5c0-4.7,2.3-6.7,6.3-6.7s2.9.1,3.4.2v4.4Z"/>
</svg>