<?xml version="1.0" encoding="UTF-8"?>
<svg id="Layer_1" xmlns="http://www.w3.org/2000/svg" version="1.1" viewBox="0 0 37 37">
  <!-- Generator: Adobe Illustrator 30.0.0, SVG Export Plug-In . SVG Version: 2.1.1 Build 123)  -->
  <defs>
    <style>
      .st0 {
        fill: #fff;
      }
    </style>
  </defs>
  <path class="st0" d="M32.3,0H4.8C2.4,0,.5,2,.5,4.4v28.2c0,2.4,1.9,4.4,4.3,4.4h27.5c2.4,0,4.3-2,4.3-4.4V4.4C36.5,2,34.6,0,32.3,0ZM11.7,14.1v16.7h-5.2V14.1h5.2ZM6.5,9.2c0-1.2,1-2.2,2.6-2.2s2.5.9,2.6,2.2c0,1.2-1,2.2-2.6,2.2s-2.6-1-2.6-2.2ZM30.5,30.8h-5.2v-8.8c0-1.8-.9-3.5-3-3.6h0c-2.1,0-2.9,1.8-2.9,3.6v8.8h-5.2V14.1h5.2v2.3s1.7-2.3,5-2.3,6.2,2.4,6.2,7.3v9.5h0Z"/>
</svg>