<?xml version="1.0" encoding="UTF-8"?>
<svg id="Layer_1" xmlns="http://www.w3.org/2000/svg" version="1.1" viewBox="0 0 113 113">
  <!-- Generator: Adobe Illustrator 30.0.0, SVG Export Plug-In . SVG Version: 2.1.1 Build 123)  -->
  <defs>
    <style>
      .st0 {
        fill: #fff;
      }
    </style>
  </defs>
  <path class="st0" d="M62.3,0c6.4,0,9.6,0,12.4.1h1.1c1.3,0,2.5.1,4,.2,6,.3,10.1,1.2,13.7,2.6,3.7,1.4,6.9,3.4,10,6.5,2.9,2.8,5.1,6.2,6.5,10,1.4,3.6,2.3,7.7,2.6,13.7,0,1.5.1,2.8.2,4v1.1c.1,2.8.2,6,.2,12.4v4.2s0,7.4,0,7.4c0,4.1,0,8.2-.1,12.4v1.1c0,1.3-.1,2.5-.2,4-.3,6-1.2,10.1-2.6,13.7-1.4,3.8-3.6,7.2-6.5,10-2.8,2.9-6.2,5.1-10,6.5-3.6,1.4-7.7,2.3-13.7,2.6l-4,.2h-1.1c-2.8.1-6,.2-12.4.2h-4.2s-7.4,0-7.4,0c-4.1,0-8.2,0-12.4-.1h-1.1c-1.3,0-2.7-.1-4-.2-6-.3-10.1-1.2-13.7-2.6-3.8-1.4-7.2-3.6-10-6.5-2.9-2.8-5.1-6.2-6.5-10-1.4-3.6-2.3-7.7-2.6-13.7l-.2-4v-1.1C0,70.5,0,66.4,0,62.3v-11.6c0-4.1,0-8.2.1-12.4v-1.1c0-1.3.1-2.5.2-4,.3-6,1.2-10.1,2.6-13.7,1.4-3.8,3.7-7.2,6.5-10,2.8-2.9,6.2-5.1,10-6.5,3.6-1.4,7.7-2.3,13.7-2.6,1.5,0,2.8-.1,4-.2h1.1C42.4,0,46.6,0,50.7,0h11.6ZM56.5,28.2c-7.5,0-14.7,3-20,8.3-5.3,5.3-8.3,12.5-8.3,20s3,14.7,8.3,20c5.3,5.3,12.5,8.3,20,8.3s14.7-3,20-8.3c5.3-5.3,8.3-12.5,8.3-20s-3-14.7-8.3-20c-5.3-5.3-12.5-8.3-20-8.3ZM56.5,39.5c2.2,0,4.4.4,6.5,1.3,2.1.9,3.9,2.1,5.5,3.7,1.6,1.6,2.8,3.4,3.7,5.5.9,2.1,1.3,4.3,1.3,6.5,0,2.2-.4,4.4-1.3,6.5-.9,2.1-2.1,3.9-3.7,5.5-1.6,1.6-3.4,2.8-5.5,3.7-2.1.9-4.3,1.3-6.5,1.3-4.5,0-8.8-1.8-12-5-3.2-3.2-5-7.5-5-12s1.8-8.8,5-12c3.2-3.2,7.5-5,12-5M86.2,19.8c-1.9,0-3.7.7-5,2.1-1.3,1.3-2.1,3.1-2.1,5s.7,3.7,2.1,5c1.3,1.3,3.1,2.1,5,2.1s3.7-.7,5-2.1c1.3-1.3,2.1-3.1,2.1-5s-.7-3.7-2.1-5c-1.3-1.3-3.1-2.1-5-2.1Z"/>
</svg>