<?xml version="1.0" encoding="UTF-8"?>
<svg id="Layer_1" xmlns="http://www.w3.org/2000/svg" version="1.1" viewBox="0 0 46 46">
  <!-- Generator: Adobe Illustrator 30.0.0, SVG Export Plug-In . SVG Version: 2.1.1 Build 123)  -->
  <defs>
    <style>
      .st0 {
        fill: #fff;
      }
    </style>
  </defs>
  <path class="st0" d="M44.3,11.8c-.4-2.3-2.4-4-4.7-4.6-3.4-.7-9.8-1.3-16.7-1.3s-13.4.5-16.8,1.3c-2.3.5-4.3,2.1-4.7,4.6-.4,2.7-.8,6.4-.8,11.2s.4,8.5.9,11.2c.4,2.3,2.4,4,4.7,4.6,3.7.7,9.9,1.3,16.8,1.3s13.2-.5,16.8-1.3c2.3-.5,4.3-2.1,4.7-4.6.4-2.7.9-6.5,1-11.2-.2-4.8-.7-8.5-1.3-11.2h.1ZM17.3,30.4v-14.9l12.7,7.4-12.7,7.4h0Z"/>
</svg>