<?xml version="1.0" encoding="UTF-8"?>
<svg id="Capa_1" data-name="Capa 1" xmlns="http://www.w3.org/2000/svg" viewBox="0 0 32 32">
  <defs>
    <style>
      .cls-1 {
        opacity: .6;
      }

      .cls-2 {
        opacity: .4;
      }

      .cls-3 {
        fill: #319f5a;
      }

      .cls-4 {
        opacity: .9;
      }

      .cls-5 {
        opacity: .3;
      }

      .cls-6 {
        opacity: .7;
      }

      .cls-7 {
        opacity: .5;
      }

      .cls-8 {
        opacity: .8;
      }
    </style>
  </defs>
  <g class="cls-4">
    <path class="cls-3" d="M16.15,23.08c-.09,0-.18,0-.26,0-1.83,0-3.49-.69-4.74-1.84-.19-.17-.37-.35-.53-.54-.89-1-1.49-2.25-1.68-3.64-.38.26-.88.57-1.17.57-.53,0-.92-.11-1.17-.36-.13-.12-.24-.24-.33-.35s-.21-.26-.37-.46l-2.49,1.88-3.15,2.37c.21.5.54,1.07.99,1.73.45.66,1.07,1.35,1.83,2.09,1.56,1.5,3.1,2.37,4.62,2.61.05,0,.11.01.16.02,1.47.19,2.92-.09,4.37-.84,1.49-.78,3.64-2.64,4.09-3.1l-.16-.15Z"/>
  </g>
  <g class="cls-6">
    <path class="cls-3" d="M14.86,6.46c.12-.13.23-.25.34-.34.11-.09.26-.22.45-.38l-1.94-2.42L11.22.24c-.49.23-1.06.57-1.7,1.05-.64.47-1.32,1.11-2.03,1.9-1.45,1.61-2.27,3.17-2.45,4.7,0,.01,0,.03,0,.04-.18,1.51.15,3,.97,4.45.68,1.21,2.11,2.84,2.85,3.62.01-1.86.75-3.55,1.93-4.8.15-.15.3-.3.46-.44,1.11-.98,2.52-1.61,4.08-1.73-.3-.38-.77-1.02-.79-1.38-.03-.53.08-.92.32-1.18Z"/>
  </g>
  <g class="cls-7">
    <path class="cls-3" d="M30.68,9.58c-.47-.64-1.1-1.32-1.89-2.04-1.6-1.46-3.17-2.28-4.69-2.48-.02,0-.05,0-.07,0-1.5-.18-2.98.14-4.43.95-1.31.74-3.12,2.33-3.8,3h.08c1.89,0,3.6.74,4.86,1.94.11.1.2.2.29.3h0c1.03,1.1,1.7,2.53,1.86,4.11.38-.3,1.04-.78,1.4-.8.53-.02.92.08,1.18.32.13.12.25.23.34.34.09.11.22.26.38.45l2.44-1.94,3.08-2.46c-.23-.49-.57-1.06-1.04-1.71Z"/>
  </g>
  <g class="cls-5">
    <path class="cls-3" d="M25.9,19.57c-.73-1.26-2.28-3-2.98-3.72,0,.06,0,.13,0,.19,0,1.82-.69,3.48-1.83,4.73-.13.15-.27.29-.42.43-1.08,1-2.48,1.67-4.03,1.84.31.38.71.97.73,1.3.03.53-.07.92-.31,1.18-.12.13-.23.25-.34.34s-.26.22-.45.38l1.94,2.39,2.5,3.09c.49-.23,1.06-.58,1.7-1.06.64-.48,1.31-1.11,2.02-1.9,1.44-1.62,2.25-3.19,2.43-4.72v-.02c.18-1.52-.15-3.01-.98-4.47Z"/>
  </g>
  <path class="cls-3" d="M16.65,23.04c-.16.02-.33.03-.5.04-.09,0-.18,0-.26,0-1.83,0-3.49-.69-4.74-1.84-.09.48-.25,1.16-.48,1.39-.38.37-.74.56-1.09.56-.18,0-.34,0-.48-.02-.14-.02-.34-.05-.59-.08l-.65,4.08-.46,2.9c.5.21,1.14.4,1.92.56.78.16,1.7.24,2.77.24,2.16,0,3.88-.44,5.13-1.33.38-.26.71-.56,1.02-.88.74-.77,1.3-1.72,1.67-2.85.44-1.34.7-3.55.78-4.6-1.08,1.01-2.48,1.68-4.03,1.84Z"/>
  <g class="cls-8">
    <path class="cls-3" d="M8.85,16.04v-.05c.01-1.86.75-3.55,1.93-4.8-.48-.08-1.22-.25-1.46-.49-.38-.37-.56-.74-.56-1.09,0-.18,0-.33.03-.48.02-.14.04-.34.08-.59l-3.84-.62-3.13-.5c-.21.5-.4,1.14-.56,1.92-.16.78-.24,1.7-.24,2.77,0,2.17.44,3.88,1.33,5.14.29.41.61.77.97,1.09.75.7,1.67,1.23,2.76,1.59,1.28.43,3.36.68,4.45.77-.89-1-1.49-2.25-1.68-3.64-.05-.33-.08-.67-.08-1.02Z"/>
  </g>
  <g class="cls-1">
    <path class="cls-3" d="M22.62,1.35c-.78-.16-1.7-.24-2.77-.24-2.17,0-3.88.44-5.14,1.33-.37.26-.71.56-1.01.88-.75.77-1.31,1.72-1.68,2.85-.44,1.33-.7,3.52-.77,4.58,1.11-.98,2.52-1.61,4.08-1.73.16-.01.32-.02.48-.02h.08c1.89,0,3.6.74,4.86,1.94.07-.46.25-1.34.51-1.61.38-.38.74-.56,1.09-.56.18,0,.34,0,.48.03.14.02.33.04.58.08l.62-3.83.5-3.14c-.5-.21-1.14-.4-1.92-.56Z"/>
  </g>
  <g class="cls-2">
    <path class="cls-3" d="M29.49,14.72c-.25-.36-.54-.69-.85-.98-.78-.76-1.74-1.33-2.88-1.71-1.39-.46-3.73-.73-4.72-.78,1.03,1.1,1.7,2.53,1.86,4.11.01.16.03.33.03.5,0,.06,0,.13,0,.19,0,1.82-.69,3.48-1.83,4.73.48.08,1.24.25,1.49.5.38.38.56.74.56,1.09,0,.18,0,.34-.03.48-.02.14-.04.33-.08.58l3.84.62,3.13.5c.21-.5.4-1.14.56-1.92.16-.78.24-1.7.24-2.77,0-2.17-.44-3.88-1.33-5.14Z"/>
  </g>
</svg>