<svg width="207" height="78" viewBox="0 0 207 78" fill="none" xmlns="http://www.w3.org/2000/svg">
<path d="M45.7305 27.1976C43.9357 27.1976 42.2857 26.8632 40.7769 26.198C39.2682 25.5291 37.975 24.6223 36.8936 23.4703L38.7925 21.2629C39.6918 22.2068 40.7472 22.9649 41.9698 23.5409C43.1887 24.1169 44.4559 24.4031 45.7677 24.4031C47.4474 24.4031 48.7555 24.024 49.6845 23.2622C50.6136 22.5004 51.0818 21.5119 51.0818 20.293C51.0818 19.3937 50.8923 18.6839 50.5132 18.1525C50.1342 17.6248 49.6288 17.1789 48.9933 16.8221C48.3616 16.4654 47.6406 16.1161 46.8342 15.7705L43.211 14.1837C42.4269 13.8381 41.6391 13.4033 40.8475 12.8719C40.0523 12.3442 39.3908 11.653 38.8631 10.802C38.3354 9.95098 38.0679 8.91417 38.0679 7.69528C38.0679 6.38348 38.4135 5.22775 39.1047 4.22439C39.7959 3.22475 40.7398 2.43693 41.9364 1.86093C43.133 1.28492 44.5005 0.998779 46.0427 0.998779C47.5626 0.998779 48.9599 1.28492 50.2382 1.86093C51.5166 2.43693 52.5906 3.18387 53.4676 4.10548L51.8102 6.14193C51.0261 5.42843 50.1713 4.85986 49.2386 4.4325C48.3058 4.00514 47.243 3.79332 46.0464 3.79332C44.6194 3.79332 43.4748 4.12034 42.6127 4.7781C41.7506 5.43586 41.3195 6.32773 41.3195 7.45373C41.3195 8.28243 41.5313 8.96248 41.9587 9.49017C42.3823 10.0216 42.9174 10.4452 43.564 10.7685C44.2069 11.0918 44.8647 11.4003 45.5299 11.7013L49.1197 13.2546C50.0859 13.6671 50.9666 14.1651 51.7619 14.7374C52.5571 15.3134 53.1814 16.0269 53.6422 16.8779C54.103 17.7289 54.3334 18.7768 54.3334 20.018C54.3334 21.3521 53.9878 22.5673 53.2966 23.6598C52.6054 24.7524 51.6169 25.6145 50.3274 26.25C49.0305 26.8817 47.5032 27.1976 45.7305 27.1976Z" fill="white"/>
<path d="M62.6098 27.1992C61.573 27.1992 60.6439 26.9911 59.8152 26.5786C58.9865 26.1661 58.3362 25.5604 57.8643 24.7651C57.3923 23.9699 57.1582 23.0111 57.1582 21.8814C57.1582 19.8338 58.0724 18.2619 59.9007 17.1693C61.7291 16.0768 64.6462 15.3113 68.6522 14.8728C68.6522 14.0664 68.5445 13.3008 68.3252 12.5762C68.106 11.8515 67.7195 11.2644 67.1695 10.8147C66.6158 10.3651 65.8243 10.1421 64.7875 10.1421C63.7061 10.1421 62.6878 10.3539 61.7328 10.7813C60.7777 11.2086 59.9193 11.662 59.1612 12.1451L57.9535 9.97116C58.5295 9.60326 59.1947 9.22793 59.9565 8.84888C60.7146 8.46983 61.5433 8.15396 62.4426 7.90126C63.3419 7.64857 64.2932 7.52222 65.3077 7.52222C66.8276 7.52222 68.0651 7.84552 69.0201 8.48841C69.9752 9.13131 70.6775 10.0232 71.1272 11.164C71.5769 12.3049 71.7998 13.6539 71.7998 15.2184V26.7458H69.2097L68.9272 24.5087H68.8232C67.9499 25.2445 66.9874 25.88 65.9395 26.4077C64.8952 26.9354 63.7841 27.1992 62.6098 27.1992ZM63.5091 24.6462C64.4084 24.6462 65.2631 24.4381 66.0807 24.0256C66.8982 23.6131 67.7529 23.0037 68.6522 22.1973V16.9835C66.5563 17.2139 64.8915 17.5409 63.6466 17.9683C62.4054 18.3957 61.5172 18.9122 60.9895 19.5217C60.4619 20.1311 60.1943 20.852 60.1943 21.6807C60.1943 22.7621 60.5176 23.5277 61.1605 23.9773C61.8034 24.4195 62.5875 24.6462 63.5091 24.6462Z" fill="white"/>
<path d="M77.04 26.7488V8.00825H79.6302L79.9423 10.7359H80.013C80.9123 9.83659 81.8599 9.0785 82.8595 8.4579C83.8592 7.8373 85.0037 7.52515 86.2932 7.52515C88.2739 7.52515 89.7232 8.15318 90.6411 9.40552C91.5627 10.6616 92.0198 12.4825 92.0198 14.8757V26.7488H88.8797V15.2882C88.8797 13.5156 88.5973 12.2409 88.0324 11.4568C87.4675 10.6764 86.5645 10.2825 85.3233 10.2825C84.3571 10.2825 83.495 10.5241 82.7332 11.0072C81.9751 11.4903 81.1352 12.2038 80.2136 13.1477V26.7488H77.04Z" fill="white"/>
<path d="M101.72 27.1992C100.683 27.1992 99.7543 26.9911 98.9256 26.5786C98.0969 26.1661 97.4466 25.5604 96.9746 24.7651C96.5027 23.9699 96.2686 23.0111 96.2686 21.8814C96.2686 19.8338 97.1827 18.2619 99.0111 17.1693C100.839 16.0768 103.757 15.3113 107.763 14.8728C107.763 14.0664 107.655 13.3008 107.436 12.5762C107.216 11.8515 106.83 11.2644 106.28 10.8147C105.726 10.3651 104.935 10.1421 103.898 10.1421C102.816 10.1421 101.798 10.3539 100.843 10.7813C99.8881 11.2086 99.0296 11.662 98.2716 12.1451L97.0638 9.97116C97.6398 9.60326 98.305 9.22793 99.0668 8.84888C99.8249 8.46983 100.654 8.15396 101.553 7.90126C102.452 7.64857 103.404 7.52222 104.418 7.52222C105.938 7.52222 107.175 7.84552 108.13 8.48841C109.086 9.13131 109.788 10.0232 110.238 11.164C110.687 12.3049 110.91 13.6539 110.91 15.2184V26.7458H108.32L108.045 24.5013H107.941C107.068 25.2371 106.105 25.8725 105.057 26.4002C104.006 26.9354 102.894 27.1992 101.72 27.1992ZM102.619 24.6462C103.519 24.6462 104.373 24.4381 105.191 24.0256C106.009 23.6131 106.863 23.0037 107.763 22.1973V16.9835C105.667 17.2139 104.002 17.5409 102.757 17.9683C101.516 18.3957 100.628 18.9122 100.1 19.5217C99.5722 20.1311 99.3046 20.852 99.3046 21.6807C99.3046 22.7621 99.6279 23.5277 100.271 23.9773C100.914 24.4195 101.698 24.6462 102.619 24.6462Z" fill="white"/>
<path d="M121.395 27.1996C120.083 27.1996 119.035 26.9395 118.255 26.4229C117.471 25.9064 116.913 25.1743 116.582 24.2304C116.248 23.2865 116.081 22.1939 116.081 20.9527V10.5624H113.286V8.18035L116.255 8.0094L116.601 2.72876H119.225V8.0094H124.334V10.5624H119.225V21.0568C119.225 22.1828 119.436 23.0635 119.864 23.699C120.291 24.3307 121.042 24.6466 122.123 24.6466C122.469 24.6466 122.837 24.5946 123.227 24.4905C123.617 24.3865 123.963 24.2675 124.264 24.1263L124.884 26.5084C124.357 26.6942 123.792 26.854 123.193 26.9915C122.591 27.1327 121.993 27.1996 121.395 27.1996Z" fill="white"/>
<path d="M134.513 27.1992C132.993 27.1992 131.566 26.8127 130.232 26.0435C128.898 25.2743 127.831 24.1557 127.04 22.6952C126.244 21.2348 125.847 19.4659 125.847 17.396C125.847 15.3038 126.244 13.5238 127.04 12.0633C127.835 10.6029 128.898 9.48063 130.232 8.69652C131.566 7.91613 132.993 7.52222 134.513 7.52222C135.665 7.52222 136.761 7.74147 137.809 8.17626C138.857 8.61476 139.782 9.25766 140.589 10.1087C141.395 10.9597 142.027 11.9965 142.488 13.2154C142.948 14.4342 143.179 15.8278 143.179 17.3923C143.179 19.4622 142.777 21.2311 141.971 22.6915C141.165 24.152 140.106 25.2705 138.794 26.0398C137.482 26.8127 136.055 27.1992 134.513 27.1992ZM134.513 24.5756C135.594 24.5756 136.542 24.2783 137.359 23.6763C138.177 23.078 138.816 22.2382 139.277 21.1568C139.738 20.0754 139.968 18.823 139.968 17.396C139.968 15.9467 139.738 14.6795 139.277 13.5981C138.816 12.5167 138.177 11.6769 137.359 11.0786C136.542 10.4803 135.594 10.1793 134.513 10.1793C133.431 10.1793 132.48 10.4803 131.666 11.0786C130.849 11.6769 130.217 12.5167 129.767 13.5981C129.318 14.6795 129.095 15.9467 129.095 17.396C129.095 18.823 129.318 20.0754 129.767 21.1568C130.217 22.2382 130.849 23.078 131.666 23.6763C132.48 24.2783 133.431 24.5756 134.513 24.5756Z" fill="white"/>
<path d="M147.459 26.748V8.00746H150.049L150.361 11.4263H150.432C151.075 10.2297 151.866 9.2821 152.795 8.57975C153.728 7.87739 154.713 7.52808 155.746 7.52808C156.184 7.52808 156.556 7.55781 156.868 7.61355C157.18 7.67301 157.47 7.78077 157.749 7.94057L157.162 10.6682C156.839 10.5753 156.552 10.501 156.3 10.4453C156.047 10.3895 155.724 10.3598 155.334 10.3598C154.575 10.3598 153.758 10.6868 152.885 11.3446C152.011 12.0023 151.261 13.1209 150.64 14.7114V26.7591H147.459V26.748Z" fill="white"/>
<path d="M161.745 4.13979C161.124 4.13979 160.622 3.95026 160.243 3.57122C159.864 3.19217 159.675 2.67934 159.675 2.03645C159.675 1.41585 159.864 0.921604 160.243 0.553706C160.622 0.185807 161.124 0 161.745 0C162.365 0 162.871 0.185807 163.265 0.553706C163.655 0.921604 163.852 1.41585 163.852 2.03645C163.852 2.67934 163.655 3.19217 163.265 3.57122C162.874 3.95026 162.369 4.13979 161.745 4.13979ZM160.158 26.7488V8.0083H163.335V26.7525H160.158V26.7488Z" fill="white"/>
<path d="M176.247 27.1992C174.727 27.1992 173.3 26.8127 171.966 26.0435C170.632 25.2743 169.565 24.1557 168.774 22.6952C167.979 21.2348 167.581 19.4659 167.581 17.396C167.581 15.3038 167.979 13.5238 168.774 12.0633C169.569 10.6029 170.632 9.48063 171.966 8.69652C173.3 7.91613 174.727 7.52222 176.247 7.52222C177.399 7.52222 178.495 7.74147 179.543 8.17626C180.591 8.61476 181.517 9.25766 182.323 10.1087C183.129 10.9597 183.761 11.9965 184.222 13.2154C184.683 14.4342 184.913 15.8278 184.913 17.3923C184.913 19.4622 184.512 21.2311 183.705 22.6915C182.899 24.152 181.84 25.2705 180.528 26.0398C179.216 26.8127 177.789 27.1992 176.247 27.1992ZM176.247 24.5756C177.329 24.5756 178.276 24.2783 179.094 23.6763C179.911 23.078 180.55 22.2382 181.011 21.1568C181.472 20.0754 181.702 18.823 181.702 17.396C181.702 15.9467 181.472 14.6795 181.011 13.5981C180.55 12.5167 179.911 11.6769 179.094 11.0786C178.276 10.4803 177.329 10.1793 176.247 10.1793C175.166 10.1793 174.214 10.4803 173.401 11.0786C172.583 11.6769 171.951 12.5167 171.502 13.5981C171.052 14.6795 170.829 15.9467 170.829 17.396C170.829 18.823 171.052 20.0754 171.502 21.1568C171.951 22.2382 172.583 23.078 173.401 23.6763C174.214 24.2783 175.166 24.5756 176.247 24.5756Z" fill="white"/>
<path d="M15.3291 77.8558C11.7021 77.8558 8.6549 77.146 6.19482 75.7301C3.73473 74.3143 1.66855 72.1626 0 69.2863L7.56979 63.5932C8.40221 65.18 9.37212 66.3469 10.4795 67.0975C11.5832 67.8482 12.7018 68.2235 13.8278 68.2235C15.6636 68.2235 17.0497 67.6698 17.9899 66.5661C18.9301 65.4624 19.3983 63.3851 19.3983 60.3416V30.3708H30.5988V61.2149C30.5988 64.2584 30.0562 67.0455 28.9711 69.5688C27.886 72.092 26.2174 74.1062 23.9654 75.6075C21.7097 77.1051 18.8334 77.8558 15.3291 77.8558Z" fill="white"/>
<path d="M50.6119 77.8539C46.6914 77.8539 43.8559 76.5495 42.1019 73.9445C40.3516 71.3395 39.4746 67.824 39.4746 63.4018V41.3799H50.6119V62.0268C50.6119 64.446 50.9464 66.1034 51.6115 66.999C52.2767 67.8946 53.321 68.3442 54.7405 68.3442C55.9929 68.3442 57.0668 68.0618 57.9624 67.5007C58.858 66.9358 59.7648 66.0105 60.6827 64.7173V41.3799H71.8199V76.9806H62.7488L61.935 72.1013H61.686C60.2256 73.8516 58.6202 75.2526 56.8699 76.2931C55.1196 77.3336 53.0311 77.8539 50.6119 77.8539Z" fill="white"/>
<path d="M80.458 76.9806V41.3799H89.5291L90.343 45.8207H90.5288C91.9892 44.3603 93.6466 43.1117 95.501 42.0674C97.3553 41.0269 99.4958 40.5029 101.915 40.5029C105.795 40.5029 108.608 41.7961 110.362 44.3826C112.112 46.969 112.989 50.4919 112.989 54.955V76.9769H101.852V56.33C101.852 53.8699 101.517 52.2014 100.852 51.3244C100.183 50.4473 99.1428 50.0088 97.7232 50.0088C96.4709 50.0088 95.4081 50.2801 94.5311 50.8227C93.654 51.3652 92.673 52.1568 91.5916 53.201V76.9769H80.458V76.9806Z" fill="white"/>
<path d="M137.019 77.8552C133.682 77.8552 130.679 77.1157 128.011 75.6329C125.343 74.1539 123.225 72.0134 121.66 69.2189C120.096 66.4243 119.315 63.0686 119.315 59.1444C119.315 55.2239 120.181 51.8756 121.913 49.1034C123.645 46.3311 125.938 44.2018 128.795 42.7227C131.653 41.2437 134.73 40.5005 138.023 40.5005C140.189 40.5005 142.129 40.8461 143.842 41.5336C145.551 42.2211 147.075 43.1501 148.409 44.317L143.218 51.3851C142.426 50.7199 141.664 50.2368 140.932 49.9469C140.204 49.6571 139.461 49.5084 138.71 49.5084C137.082 49.5084 135.666 49.9061 134.455 50.6976C133.244 51.4891 132.318 52.6077 131.672 54.0458C131.025 55.484 130.702 57.186 130.702 59.1444C130.702 61.1065 131.036 62.8159 131.701 64.2764C132.367 65.7368 133.277 66.8628 134.422 67.6544C135.57 68.4459 136.852 68.8435 138.268 68.8435C139.394 68.8435 140.479 68.6057 141.519 68.1226C142.56 67.6432 143.541 67.0486 144.459 66.3389L148.777 73.6597C147.027 75.2019 145.094 76.287 142.991 76.9113C140.888 77.543 138.896 77.8552 137.019 77.8552Z" fill="white"/>
<path d="M162.418 77.8539C160.248 77.8539 158.371 77.3634 156.788 76.3823C155.201 75.4013 153.982 74.0895 153.128 72.4395C152.273 70.7932 151.846 68.9872 151.846 67.0288C151.846 63.2755 153.41 60.3434 156.539 58.2401C159.668 56.133 164.692 54.706 171.619 53.9554C171.534 52.9966 171.307 52.1716 170.932 51.4841C170.556 50.7967 169.984 50.2764 169.211 49.9196C168.438 49.5666 167.45 49.3882 166.238 49.3882C164.819 49.3882 163.362 49.6595 161.857 50.2021C160.356 50.7446 158.706 51.5176 156.915 52.5172L153.035 45.1964C154.618 44.2377 156.234 43.4127 157.884 42.7252C159.531 42.0377 161.233 41.4951 162.983 41.0975C164.733 40.7036 166.528 40.5029 168.364 40.5029C171.448 40.5029 174.057 41.0864 176.183 42.2532C178.308 43.4201 179.936 45.2039 181.062 47.6045C182.188 50.0051 182.753 53.0598 182.753 56.7722V76.9806H173.682L172.931 73.4131H172.619C171.159 74.7063 169.583 75.7692 167.896 76.6053C166.205 77.4377 164.38 77.8539 162.418 77.8539ZM166.235 69.2213C167.361 69.2213 168.342 68.9723 169.174 68.4707C170.007 67.969 170.82 67.2815 171.616 66.4045V60.7113C169.323 61.0049 167.494 61.4211 166.142 61.9637C164.785 62.5062 163.827 63.1306 163.262 63.8403C162.701 64.5501 162.418 65.3231 162.418 66.1555C162.418 67.1997 162.764 67.969 163.451 68.4707C164.139 68.9723 165.068 69.2213 166.235 69.2213Z" fill="white"/>
<path d="M201.148 77.8541C198.603 77.8541 196.592 77.3338 195.11 76.2896C193.627 75.2491 192.575 73.7886 191.951 71.9083C191.327 70.0279 191.011 67.8614 191.011 65.4013V26.9912H202.148V65.7803C202.148 66.9472 202.367 67.7499 202.806 68.1884C203.244 68.6269 203.672 68.8462 204.088 68.8462C204.296 68.8462 204.485 68.835 204.653 68.8164C204.82 68.7941 205.05 68.7644 205.34 68.7235L206.656 76.9213C206.072 77.1703 205.322 77.3896 204.404 77.5791C203.482 77.7612 202.397 77.8541 201.148 77.8541Z" fill="white"/>
</svg>
